<svg xmlns="http://www.w3.org/2000/svg" width="138" height="141.438" viewBox="0 0 138 141.438">
  <metadata><?xpacket begin="﻿" id="W5M0MpCehiHzreSzNTczkc9d"?>
<x:xmpmeta xmlns:x="adobe:ns:meta/" x:xmptk="Adobe XMP Core 5.6-c142 79.160924, 2017/07/13-01:06:39        ">
   <rdf:RDF xmlns:rdf="http://www.w3.org/1999/02/22-rdf-syntax-ns#">
      <rdf:Description rdf:about=""/>
   </rdf:RDF>
</x:xmpmeta>
                                                                                                    
                                                                                                    
                                                                                                    
                                                                                                    
                                                                                                    
                                                                                                    
                                                                                                    
                                                                                                    
                                                                                                    
                                                                                                    
                                                                                                    
                                                                                                    
                                                                                                    
                                                                                                    
                                                                                                    
                                                                                                    
                                                                                                    
                                                                                                    
                                                                                                    
                                                                                                    
                           
<?xpacket end="w"?></metadata>
<defs>
    <style>
      .cls-1 {
        fill: #fce200;
        fill-rule: evenodd;
      }
    </style>
  </defs>
  <path id="Circle_Logo" data-name="Circle Logo" class="cls-1" d="M972.668,139.724a0.335,0.335,0,0,0-.243-0.332C972.4,139.61,972.455,139.75,972.668,139.724Zm-120.533-21.04q0.081-.251-0.162-0.167C851.919,118.684,851.973,118.739,852.135,118.684Zm120.371,22.039c-0.061.283,0.309,0.324,0.324,0.083A0.505,0.505,0,0,0,972.506,140.723ZM850.759,120.929c0-.114.13-0.3-0.162-0.249Q850.476,121.011,850.759,120.929Zm124.9,39.5-0.033.294a2,2,0,0,1-.291-0.211,2.731,2.731,0,0,0,.081,1.248,2.065,2.065,0,0,0,.081-0.749Q976.056,160.772,975.663,160.433ZM864.982,104.652c0.054,0.038-.061.064-0.057-0.024-0.008.189-.231,0.25,0.081,0.25C865.091,104.773,865.079,104.7,864.982,104.652Zm107.443,34.324q0.2-.209-0.081-0.249Q972.142,138.934,972.425,138.976Zm-131.542,3.576c-0.4.111-.126,0.393,0,0h0Zm-0.243,2.329c0.086-.636-0.232-0.31-0.566-0.416,0,0.138.041,0.171,0.072,0.161A0.518,0.518,0,0,0,840.64,144.881Zm4.29-14.305a2.535,2.535,0,0,1,.162-0.249C844.893,130.06,844.592,130.52,844.93,130.576Zm130.49,32.1c-0.053.192,0.316,0.179,0.243,0C975.635,162.611,975.448,162.578,975.42,162.679ZM849.545,122.426a0.507,0.507,0,0,0-.29-0.08c0.125,0.045.067,0.5-.034,0,0.124,0.624-.265.02-0.324,0.415a3.076,3.076,0,0,0,.486.333A1.771,1.771,0,0,1,849.545,122.426Zm126.037,39.421c0.083,0.246-.466.283-0.162,0.5C975.4,162.542,976.163,161.665,975.582,161.847ZM848.573,123.923c0.213-.116.862-0.749,0.243-0.749C848.876,123.541,848.475,123.532,848.573,123.923Zm126.6,28.276c-0.293.393,0.474,0.111,0,0h0Zm-2.671-12.142a0.311,0.311,0,0,0,.243.416Q972.952,139.933,972.506,140.057Zm2.428,12.891c0.38,0.026.217-.385,0-0.416C974.783,152.691,974.926,152.741,974.934,152.948Zm-0.633-5.581c0.012-.031-0.041-0.127-0.014.009C974.724,147.418,974.375,147.352,974.3,147.367Zm-0.419-.157,0.243-.333a0.56,0.56,0,0,0-.223-0.135c0.021-.025.009-0.062-0.1-0.031A0.575,0.575,0,0,0,973.882,147.21Zm1.781,10.811q-0.2.209,0.081,0.25Q975.947,158.063,975.663,158.021Zm0-1.414c-0.008.189-.23,0.25,0.081,0.25C975.752,156.668,975.975,156.607,975.663,156.607Zm-0.162-.166c0.046,0.377.464-.476,0.081-0.083C975.544,156.4,975.489,156.342,975.5,156.441Zm0.243,2.246c-0.567.367,0.251,0.525,0,0h0Zm-0.486-3.41c0.014,0.124-.029.307,0.081,0.332C975.4,155.548,975.541,155.2,975.258,155.277Zm-2.185-12.226q-0.122.375,0.243,0.25l-0.211-.217C973.146,143.086,973.2,143.04,973.073,143.051Zm0.081,0.416a10.006,10.006,0,0,0-.081,1A0.7,0.7,0,0,0,973.154,143.467Zm-0.081-1.83c0.065,0.5.241,0.01,0.043,0C973.175,141.64,973.083,141.721,973.073,141.637Zm0.809,5.905c-0.056.224,0.168,0.161,0.243,0.25C974.173,147.576,974.093,147.492,973.882,147.542Zm-0.809-2.079,0.291-.179c-0.006.033,0.077,0.036,0.113-.07C973.108,145.325,973.073,144.809,973.073,145.463Zm0.081-.748c-0.169.165,0,.355,0.162,0.415C973.444,145.006,973.434,144.656,973.154,144.715Zm2.185,10.063v0.249C975.576,155.149,975.576,154.655,975.339,154.778Zm-91.391,71.939c0.021,0.19.258,0.22,0.243,0.083C884.185,226.747,883.927,226.52,883.948,226.717Zm2.914,0.582c-0.116.122-.119,0.322,0.162,0.25A0.229,0.229,0,0,0,886.862,227.3Zm-3.481-1.164a0.875,0.875,0,0,1-.081.748,0.556,0.556,0,0,0,.486.084C883.574,226.838,883.885,226.021,883.381,226.135Zm4.222,1.516a1.2,1.2,0,0,1-.417.064,0.567,0.567,0,0,0,.566.416c-0.026-.167-0.054-0.333-0.081-0.5C887.623,227.843,887.527,227.7,887.6,227.651Zm-1.581-.6c0.087,0.023.012,0.137-.032,0.126,0.1,0.24.579,0.423,0.71,0.7A0.8,0.8,0,0,0,886.022,227.053Zm-0.86-.669c-0.054.166,0,.222,0.162,0.166Q885.405,226.3,885.162,226.384Zm0.81,0.666c-0.017.091,0,.123,0.018,0.129A0.22,0.22,0,0,1,885.972,227.05Zm-3.643-1.165a1.4,1.4,0,0,0,.405.582A0.472,0.472,0,0,0,882.329,225.885Zm-0.4-.083a0.373,0.373,0,0,0-.486.166c0.372,0.325.4-.347,0.4,0.333C882.276,226.246,881.874,226.015,881.924,225.8Zm6.107,2.039c0.134-.129.042,0.249-0.019,0.1a1.357,1.357,0,0,0,.226.523C888.235,228.483,888.4,227.432,888.031,227.841Zm-5.055-1.207a0.2,0.2,0,0,0,.243.249A0.2,0.2,0,0,0,882.976,226.634Zm-7.851-3.244c-0.105.111-.107,0.31,0.081,0.333C875.311,223.612,875.312,223.413,875.125,223.39Zm26.308,6.154q-0.211.261,0.1,0.147Q901.7,229.468,901.433,229.544Zm-21.209-4.407c0.07,0.625.057,0.031,0.728,0.249A0.771,0.771,0,0,0,880.224,225.137Zm-41.446-73.769c0.054-.166,0-0.222-0.161-0.166Q838.536,151.451,838.778,151.368Zm32.3,69.454c0.084,0.042-.023.184-0.078-0.01a1.475,1.475,0,0,1-.081.416C871.4,221.249,871.268,220.888,871.074,220.822Zm27.931,8.972c-0.055.166,0,.222,0.161,0.166Q899.247,229.711,899.005,229.794Zm-0.082-.582a0.9,0.9,0,0,0-.243.416C898.839,229.846,899.3,229.3,898.923,229.212Zm-1.618,1.5a0.686,0.686,0,0,0-.163-0.416C897.178,230.45,897.033,230.794,897.305,230.709Zm-15.867-5.323a1.911,1.911,0,0,1-.728.167C880.564,226.17,881.537,225.854,881.438,225.386Zm19.671,5.157c0.185,0.023.3-.021,0.324-0.167C901.249,230.353,901.128,230.4,901.109,230.543Zm-0.081-.915v0.249C901.264,230,901.264,229.505,901.028,229.628Zm-0.971.582c0.154,0.035.146,0.238,0.4,0.166C900.494,230.11,900.117,229.9,900.057,230.21Zm-0.162-.666q-0.081.251,0.162,0.167C900.111,229.544,900.057,229.489,899.9,229.544ZM851,120.43c0.057-.062.2-0.407-0.081-0.333C850.934,120.221,850.892,120.4,851,120.43Zm13.033-11.394c0.111,0.246.03,0.3-.243,0.166a1.4,1.4,0,0,1-.243.749,0.762,0.762,0,0,0,.676-0.848C864.32,109.087,864.308,108.979,864.035,109.036Zm1.861-2.412c-0.006-.765-1,0.13-0.243.166C865.64,106.56,865.777,106.505,865.9,106.624Zm-3,3.909c-0.054.166,0,.222,0.162,0.166C863.117,110.533,863.063,110.477,862.9,110.533Zm-22.18,57.884c0.409-.335-0.282-0.389,0,0h0Zm21.726-57.851c0.071,0.072.141,0.144,0.211,0.217q0.122-.375-0.243-0.25C862.405,110.661,862.449,110.608,862.447,110.566Zm-0.194-.948a0.355,0.355,0,0,0,.243.416A0.355,0.355,0,0,0,862.253,109.618Zm0.81-.166c-0.04.449,0.024,0.09,0.009,0.014C863.1,109.479,863.2,109.424,863.063,109.452Zm0.243,0.249c-0.094.125-.284,0.35,0,0.416C863.352,110.067,863.5,109.723,863.306,109.7Zm8.5,27.279c-0.127.008-.28-0.011-0.243,0.166A0.223,0.223,0,0,0,871.805,136.98Zm-0.161-4.907c0.151,0.122.1,0.456,0.4,0.416C871.989,132.323,871.76,131.906,871.644,132.073Zm0.728-28.858c0,0.164-.221.1-0.162,0.332C872.444,103.562,872.656,103.266,872.372,103.215Zm-0.485,26.862c-0.054.166,0,.222,0.161,0.166Q872.129,129.994,871.887,130.077Zm0.4,14.887c-0.053.166,0,.222,0.162,0.166Q872.534,144.881,872.291,144.964Zm-0.486-7.734c0.153-.019.179,0.093,0.324,0.083C872.164,137,871.887,137.057,871.805,137.23Zm0.243,0.249c-0.346-.084-0.666.381-0.323,0.5C871.661,137.635,872.112,137.822,872.048,137.479Zm-4.29-31.52c-0.414.195-.168-0.041-0.317-0.192,0.073,0.087-.233.113-0.088-0.058C867.121,105.981,867.515,106.671,867.758,105.959Zm-3.319,2.412c-0.027.926,1.677-.641,0.891-0.5a0.393,0.393,0,0,1-.405.416q0.119-.231-0.162-0.25C864.8,108.3,864.693,108.409,864.439,108.371Zm-2.833,3.493a0.173,0.173,0,1,0,.081-0.333A0.545,0.545,0,0,0,861.606,111.864Zm-3.643,3.16a0.515,0.515,0,0,0,.324.083C858.308,114.864,857.973,114.788,857.963,115.024Zm-8.58,80.422a0.46,0.46,0,0,0,.566.083l-0.123-.254c0.024-.019.035-0.068-0.039-0.078C849.751,195.4,849.341,195.17,849.383,195.446Zm11.252-84.081q-0.081.249,0.162,0.166C860.851,111.365,860.8,111.309,860.635,111.365ZM847.116,132.24c0.057-.263.4-0.416-0.081-0.416A0.255,0.255,0,0,0,847.116,132.24Zm2.752,63.7h0.324C850.248,195.617,849.851,195.673,849.868,195.945Zm-8.5-22.538c-0.081.249,0,.333,0.242,0.249l-0.21-.216C841.442,173.442,841.494,173.4,841.369,173.407Zm-0.567-4.574a0.551,0.551,0,0,0-.081.332A0.172,0.172,0,1,0,840.8,168.833Zm1.19-19.188c0.055,0.038-.06.065-0.057-0.024-0.008.189-.23,0.25,0.081,0.25C842.1,149.766,842.09,149.692,841.992,149.645Zm-0.3.392c-0.054.166,0,.222,0.161,0.166Q841.935,149.954,841.693,150.037Zm7.852,44.578a0.537,0.537,0,0,0-.081.332c0.368,0.041.4-.346,0.12-0.333C849.63,194.628,849.523,194.71,849.545,194.615Zm2.1-70.36a0.227,0.227,0,0,0-.162-0.249A0.227,0.227,0,0,0,851.649,124.255Zm4.452-6.9a0.223,0.223,0,0,0,.243-0.167C856.217,117.194,856.064,117.175,856.1,117.353Zm2.429,89.653c0.185,0.024.3-.02,0.324-0.166C858.71,206.859,858.448,206.756,858.53,207.006Zm1.538-94.976c-0.065.5,0.371,0.056,0,0h0Zm11.819,19.71c-0.023.218,0.029,0.358,0.242,0.333C872.1,131.914,872.1,131.715,871.887,131.74ZM853.43,201.268c0.167,0.073.364-.216,0.162-0.249A2.216,2.216,0,0,1,853.43,201.268Zm-1.619-3.16a0.366,0.366,0,0,0,.162.332A0.188,0.188,0,0,0,851.811,198.108Zm0.162-75.433c-0.039.449,0.023,0.09,0.008,0.014C852.011,122.7,852.106,122.647,851.973,122.675Zm11.252-12.391c-0.2.11-.2-0.388-0.324-0.084C863.009,110.188,863.145,110.538,863.225,110.284Zm10.442-7.818a0.222,0.222,0,0,0-.242.166A0.222,0.222,0,0,0,873.667,102.466Zm0.4-.333c-0.134-.017-0.1.026-0.048,0.025l-0.276.141C874.06,102.329,873.828,102.514,874.072,102.133Zm1.781-1.081a1.554,1.554,0,0,0,.971-0.665,2.22,2.22,0,0,0-.485-0.084C876.408,100.779,875.994,100.711,875.853,101.052Zm-1.053.749c0.069-.184.8-0.283,0.567-0.583a0.508,0.508,0,0,1-.512.024c0.064,0.066.008,0.234-.055-0.024C874.85,101.42,874.5,101.708,874.8,101.8Zm-0.4-.25q0.2-.209-0.081-0.249C874.18,101.44,874.207,101.524,874.4,101.551Zm-1.134,1.081a0.308,0.308,0,0,0-.323.333C873.21,103.022,873.235,102.825,873.262,102.632Zm-0.485-.166c0.218,0.057.156-.172,0.243-0.25A0.2,0.2,0,0,0,872.777,102.466Zm12.628,27.777c0,0.072-.062.5,0.243,0.416A0.311,0.311,0,0,0,885.405,130.243Zm1.053,4.325q-0.2.208,0.08,0.25Q886.741,134.61,886.458,134.568Zm-0.81-38.09q-0.081.25,0.162,0.166Q885.891,96.394,885.648,96.478Zm0.567,48.486c-0.054.166,0,.222,0.161,0.166Q886.457,144.881,886.215,144.964Zm0.486-2.655c-0.267.037-.889,0.244-0.325,0.576-0.012-.386.4,0.185,0.4-0.582C886.781,142.42,886.605,142.334,886.7,142.309Zm-0.163,2.489c0.237,0.009.334-.487,0.081-0.5A0.727,0.727,0,0,0,886.538,144.8Zm-0.323-4.242a0.98,0.98,0,0,0,.243.749l0.242-.333c-0.478.2-.2-0.311-0.383-0.4C886.374,140.555,886.4,140.533,886.215,140.556Zm-17.081-11.394c0.065,0.5.242,0.01,0.044,0C869.236,129.165,869.145,129.246,869.134,129.162Zm0,2.5v0.25C869.371,132.029,869.371,131.535,869.134,131.657Zm2.267-28.193c-0.409.335,0.282,0.389,0,0h0Zm1.133,43.828c-0.187,0-.383.338-0.486,0,0.39-.019.456-0.78,0.243-1a0.132,0.132,0,0,1-.162.166c-0.139-.484.232-1.289-0.242-1.663q-0.015.375-.325,0.249a0.522,0.522,0,0,1,.5-0.371c0.386-.243.282-0.368-0.307-0.376a1.638,1.638,0,0,0,.41-0.93c-0.019.007,0.208-.821,0.2-0.9-0.157-.063-0.33.332-0.4,0.166,0.047-.626.019-1.251,0-1.877,0,0.182-.181-0.672-0.279-0.908,0.463,0.381-.134-1.484-0.132-1.456,0.467-.013.093,0.769,0.567,0.749-0.383-.763.319-0.659-0.512-1.091a2.376,2.376,0,0,1-.864-0.573c0.248,0.106.779,0.351,0.809-.166a0.579,0.579,0,0,0-.485,0c0.463-.107.319-1.482,0.324-1.747a0.735,0.735,0,0,0,.647.5c0.169-.442.366-2-0.4-2a0.444,0.444,0,0,1,0,.416c-0.3,0-.326-0.6-0.162-0.749-0.009-.014.813,0.5,0.809,0.5,0.066-.415.024-1.174-0.566-1.082-0.063.339,0.386,0.161,0.323,0.5-0.821.128-.263-3.449-0.647-4.075-0.063.228,0.2,1.345-.162,1.414-0.463-.106-0.3-0.573-0.648-0.749a1.58,1.58,0,0,0,.243-1.081,0.681,0.681,0,0,0-.324.749,1.081,1.081,0,0,0-.647-0.5c-0.5.225-.948,0-1,0.884-0.091,1.7.421,0.244,0.509,0.114,0.213,0.593-.23,1.027.243,1.746a0.5,0.5,0,0,1-.486-0.083,0.486,0.486,0,0,1,0,.5,0.38,0.38,0,0,1,.4.083,1.192,1.192,0,0,1-.243.167,0.654,0.654,0,0,1,.4.332c-0.374.3-.483-0.223-0.809-0.249-0.047.191,0.815,0.846,0.323,0.915-0.412-.777-0.057-0.252-0.485.166,0.425,0.351.623,0,.89,0.416-0.361.017-.492,0.559-0.89,0.333a1.811,1.811,0,0,0,.242,1.081,0.338,0.338,0,0,1,.243-0.333c0.654,0.126-.889,1.1-0.243,1.414a0.352,0.352,0,0,1,.081-0.333c0.379,0.073-.285.781-0.323,1a1.447,1.447,0,0,0,.485-0.166c0,0.355.061,0.416-.405,0.416,0.015-.061.025,1.034,0.016,0.905,0.029,0.43-.215.532-0.177,0.841,0.1,0.272.585,0.02,0.647,0.333a1.078,1.078,0,0,0-.566.333,0.6,0.6,0,0,1,.4.166,0.49,0.49,0,0,0-.324.249,0.852,0.852,0,0,1,.243.25,0.425,0.425,0,0,0-.4.166c0.3,0.123.148,0.979,0.136,1.166-0.067,1.068.038,0.091,0.268,0.83a0.478,0.478,0,0,0-.323.25,0.687,0.687,0,0,0,.566-0.416c-0.041.338-.085,2.5-0.324,2.245-0.115.424,0.226,0.289,0.324,0.582-0.146.289-.467-0.069-0.566,0.25,0.773,0.363.356,0.943,0.4,1.5a0.311,0.311,0,0,1,.486.166c-0.206.247-.386-0.222-0.567,0,0.035,0.406.876,1.8,0,1.747a0.872,0.872,0,0,0,.4.665,0.543,0.543,0,0,1,0-.5c0.189,0.331.174,2.643-.243,2.578-0.157.522,0.441,2.955-.162,2.911,0.069,0.135.942,1.1,0.324,1.081a0.17,0.17,0,0,0-.162-0.249c-0.309.266,0.318,0.553,0.324,0.582-0.324.085-.118,0.779-0.324,1.081a0.155,0.155,0,0,0-.233-0.087c0.007-.057.009-0.1-0.01,0-0.016.173,0,.094,0.008,0.019a1.889,1.889,0,0,0,.316.646c-0.1.315-.37-0.39-0.324,0.167,0.093,0.253.458-.243,0.4,0.249-0.447.148-.1,0.536,0,0.666-0.2.513-.137,1.537-0.485,1.663,0.394,0.584-.19,2.616.2,2.982,0.266,0.249.16,0.537-.2,0.511a6.049,6.049,0,0,1,0,2c0.333,0.126-.01-0.459.323-0.333,0.2,0.451-.2.413-0.323,0.749,0.02,0.274.3-.192,0.323,0.083a3.373,3.373,0,0,1-.405,1.663,0.486,0.486,0,0,1,.324.25c-0.4.569-.167,0.384,0.081,1.081-0.135.024-.27,0.052-0.405,0.083,0.34,0,.076.6,0.243,0.748a0.485,0.485,0,0,0-.4-0.166,0.537,0.537,0,0,0,.485.416c-0.708.43,0.395,1.111,0.4,1.164-0.075.409-.343-0.061-0.486-0.083a3.582,3.582,0,0,0,.162,1.082c-0.288.014-.014-0.471-0.405-0.333-0.168.234,0.246,0.361-.08,0.582a0.407,0.407,0,0,1,.4.332,0.2,0.2,0,0,0-.324.084,1.808,1.808,0,0,0,.486.416c-0.654,0-.893.487-0.4,1.081-0.261.1-.065-0.268-0.325-0.167a4.809,4.809,0,0,1,.082,2.163,0.326,0.326,0,0,1,.323.083,0.864,0.864,0,0,1-.323.166,1.883,1.883,0,0,1,.4.832q-0.45.012-.243-0.416c-0.329.083-.274,4.51-0.215,4.963,0.078,0.595-.145,5.23.377,5.267,0,0.042-.236.866-0.323,1.081,0.1,0.107.608,0.247,0.4,0.5a0.838,0.838,0,0,0-.323-0.25c-0.149.584-.128,3.233,0.593,3.384a9.392,9.392,0,0,0,2.159-.057,3.7,3.7,0,0,1,.566.083,3.24,3.24,0,0,1,.324-1.247l-0.324-.167c0.658-.454-0.158-1.953-0.1-2.524,0.056-.542-0.23-0.729.033-1.066a1.253,1.253,0,0,0-.094-1.4,0.387,0.387,0,0,1,.3.068c0.248-.016-0.215-1.245-0.216-1.315,0.486,0,.345-1.441.376-2.009a2.352,2.352,0,0,0-.3-1.318,1.615,1.615,0,0,0,.3-1.236,9,9,0,0,0,.01-1.847,3.162,3.162,0,0,0-.312-0.41c0.969-.526-0.25-2.726.327-3.238,0.3-.269-0.2-3.115-0.084-3.831a0.314,0.314,0,0,1-.4,0c0.558-.437.091-1.341,0.4-1.913a1.057,1.057,0,0,0-.45-0.366,0.881,0.881,0,0,0,.288-0.382,0.7,0.7,0,0,0-.324-0.25c0.757-.189.412-3.087,0.405-3.326a7.831,7.831,0,0,0,.073-3.086c-0.051-1.532-.075-2.92-0.154-4.317a0.848,0.848,0,0,0,.243-0.249,0.251,0.251,0,0,1-.243-0.249,0.167,0.167,0,0,0,.243-0.167c-0.389-.03-0.39-1.172-0.4-1.247a3.746,3.746,0,0,0,.332-1.135,2.651,2.651,0,0,0-.413-1.277c0.5,0.373.482-2.932,0.4-3.743a0.357,0.357,0,0,1-.566-0.166c0.4-.4.475,0.062,0.647-0.582a1.188,1.188,0,0,1-.647-0.25,1.09,1.09,0,0,1,.647.083,0.643,0.643,0,0,1,.162-0.831,0.537,0.537,0,0,1-.486-0.083C872.155,147.5,872.649,147.76,872.534,147.292Zm-3.8-11.227c-0.008.189-.232,0.25,0.08,0.25,0.086-.1.074-0.179-0.024-0.226C868.841,136.127,868.726,136.153,868.73,136.065Zm17.728,0.166a0.544,0.544,0,0,0,.08-0.332C886.236,135.864,886.289,136.148,886.458,136.231Zm85.886,46.075a1.829,1.829,0,0,0,.162-0.832C972.141,181.509,972.139,182.132,972.344,182.306Zm0-8.483a0.3,0.3,0,0,0,.243.5C972.546,174.115,972.59,173.82,972.344,173.823Zm0.324,6.82a0.225,0.225,0,0,0,.243-0.167C972.784,180.484,972.63,180.465,972.668,180.643Zm-0.567.166c0.273,0.252.246-.308,0,0h0Zm2.4-12.575a0.23,0.23,0,0,1-.214.1A0.181,0.181,0,0,0,974.5,168.234Zm-1.425,1.514a0.244,0.244,0,0,0,.162.416C973.2,170.006,973.345,169.662,973.073,169.748Zm-1.03,5.657c0.021-.027.006-0.064-0.1-0.085l-0.4.582a1.2,1.2,0,0,1,.485.083A3.619,3.619,0,0,0,972.043,175.405Zm0.787-4.327c0.065,0.5.241,0.01,0.043,0C972.932,171.081,972.841,171.162,972.83,171.078Zm0,0.416V171.7a0.564,0.564,0,0,0-.567-0.126,3.922,3.922,0,0,1-.081.666c0.273,0.08.157-.248,0.352-0.252-0.111.017-.066,0.2-0.014,0.231-0.208.382-.8,0.715-0.176,1.019a0.848,0.848,0,0,0-.243-0.333,2.085,2.085,0,0,0,.745-1.16C973.064,171.836,973.06,171.375,972.83,171.494Zm-0.243-1.33c0.316,0.1.293-.579,0.243-0.583A2.192,2.192,0,0,0,972.587,170.164Zm-1.457,7.983c-0.442-.124-0.216.632-0.243,0.749,0.111-.026.384-0.062,0.405,0.083C971.4,178.485,970.9,178.637,971.13,178.147Zm-0.486,1a0.175,0.175,0,1,0,.324,0h-0.324Zm0.243,2.079c0.135-.166-0.007-0.106,0-0.333A0.176,0.176,0,1,0,970.887,181.225Zm0.162,3.825v0.25C971.285,185.422,971.285,184.928,971.049,185.05Zm0.809-1.829c0,0.124-.3.34-0.08,0.416C971.8,183.538,972.1,183.322,971.858,183.221Zm-0.486-5.406a0.722,0.722,0,0,0-.08.5C971.608,178.405,971.616,177.819,971.372,177.815Zm-0.08-.582c-0.024.219,0.112,0.273,0.323,0.249C971.64,177.263,971.5,177.209,971.292,177.233Zm0,7.568c0.372,0.078.155-.45,0.323-0.582C971.1,184.179,971.458,184.544,971.292,184.8Zm3.212-15.208a0.57,0.57,0,0,0-.379.238c0.186,0.156.337,0.1,0.455-.175C974.533,169.69,974.459,169.625,974.5,169.593Zm-0.379-5.916,0.243,0.166a0.231,0.231,0,0,0-.243.332c0.566,0.657.584-1.78,0.486-1.829C973.952,162.164,974.409,163.341,974.125,163.677Zm-3.561,22.87c0.245,0.031.167-.271,0.242-0.416C970.553,186.094,970.548,186.309,970.564,186.547Zm4.37-25.033c-0.127-.007-0.063-0.212-0.242-0.166C974.564,161.578,974.9,161.721,974.934,161.514Zm-0.647,2.994c-0.185.215,0.08,0.471,0.324,0.5C974.532,164.811,974.585,164.48,974.287,164.508Zm-0.648-.665c0.111,0.115.488,0.079,0.486-.166C973.911,163.678,973.648,163.63,973.639,163.843Zm0.163,4.241c0.19,0.151-.127.457,0.161,0.5a0.248,0.248,0,0,1,.321-0.253c-0.045-.028-0.012-0.1.246-0.162-0.7.162-1.456-1.012-1.214,0.5-0.425-.014-0.2-0.546-0.486-0.583,0.014,0.311.087,0.825-.405,0.583a4.5,4.5,0,0,0,.567.665,0.611,0.611,0,0,1,.243-0.416q-0.106.444,0.324,0.416A1.594,1.594,0,0,1,973.8,168.084Zm1.052-4.407H975.5C975.48,163.193,975.066,163.629,974.854,163.677Zm0.971-5.24c-0.054.166,0,.222,0.162,0.166Q976.068,158.354,975.825,158.437Zm-0.486,5.821c-0.08.25,0,.333,0.243,0.25Q975.7,164.133,975.339,164.258Zm0.243-1a0.224,0.224,0,0,0,.243-0.167C975.7,163.1,975.544,163.083,975.582,163.261Zm-1.7,6.32c0.073-.1.228-0.787-0.08-0.748C973.989,169.255,973.6,169.428,973.882,169.581Zm-0.323,1.913v0.25C973.794,171.866,973.794,171.372,973.559,171.494Zm0.161-1.663c-0.272-.253-0.245.307,0,0h0Zm0.082,5.738c-0.055.167,0,.222,0.161,0.167C974.017,175.569,973.963,175.514,973.8,175.569Zm0.161-1q0.381,0.057.324-.333A0.308,0.308,0,0,0,973.963,174.572Zm0.255-2.563c0-.013-0.019-0.024-0.093-0.016,0.006,0.2-.139.413,0.243,0.333A0.225,0.225,0,0,0,974.218,172.009Zm-0.093,1.148c-0.1.163-.219,0.9,0.162,0.832C974.067,173.73,974.494,173.293,974.125,173.157Zm-65.892,58.134c-0.054.166,0,.222,0.161,0.166C908.449,231.291,908.394,231.236,908.233,231.291Zm-0.729-.249c-0.246.28,0.3,0.252,0,0h0Zm-0.243-1.331c-0.138-.034.017-0.108,0-0.25C906.928,229.32,907.146,230.076,907.261,229.711Zm59.66-37.425c-0.054,0-.093.345,0,0h0ZM910.58,231.541q-0.081.249,0.162,0.166C910.8,231.541,910.742,231.485,910.58,231.541Zm1.538,0.083v-0.167C911.969,231.181,911.724,231.707,912.118,231.624Zm-3.562-1c-0.034.037-.024,0.049,0,0.049a3.549,3.549,0,0,0,0,.7,1.309,1.309,0,0,0,.486-0.5l-0.422-.217C908.67,230.636,908.7,230.6,908.556,230.626Zm-1.214.083c-0.054.166,0,.222,0.162,0.166Q907.585,230.626,907.342,230.709Zm-5.5-.5q-0.081.249,0.162,0.166C902.053,230.21,902,230.155,901.838,230.21Zm0.324,0.5c-0.055.166,0,.222,0.162,0.166C902.377,230.709,902.324,230.654,902.162,230.709Zm0.809-1.913c0.309-.769-0.512-0.225-0.809-0.5,0.082,0.459-.866,1,0.242,1C902.127,228.439,902.668,228.751,902.971,228.8Zm-61.926-56.387c0.225,0.133.224-.359,0.081-0.333C841.144,172.233,841.035,172.26,841.045,172.409ZM906.452,229.3a0.848,0.848,0,0,0-.243.249C906.373,229.544,906.949,229.414,906.452,229.3Zm-1.134.333a0.223,0.223,0,0,0,.243-0.167C905.434,229.469,905.281,229.45,905.318,229.628Zm1.053,1.414a0.323,0.323,0,0,0-.081.415l0.405-.332a0.509,0.509,0,0,0-.252-0.077C906.457,231.074,906.372,231.131,906.371,231.042Zm-1.862.415a0.328,0.328,0,0,0,.323-0.249C904.621,231.184,904.485,231.238,904.509,231.457Zm65.812-44.91a0.229,0.229,0,0,0,.161.25A0.229,0.229,0,0,0,970.321,186.547Zm-66.3,44.411c0.075,0.145,0,.447.243,0.416C904.257,231.162,904.251,230.946,904.023,230.958Zm63.869-39.42q-0.081.249,0.162,0.166C968.108,191.538,968.054,191.482,967.892,191.538Zm0.243-.416c-0.152.158-.009,0.208,0,0.416C968.514,191.564,968.352,191.153,968.135,191.122Zm-0.972.748a0.4,0.4,0,0,1-.075.407c-0.22-.008-1.552.043-0.491,0.425-0.017-.3.036-0.416,0.324-0.416-0.1.372,0.1,1.189-.648,1.33a0.715,0.715,0,0,0-.243-0.332,1.123,1.123,0,0,0,.4-0.333c-0.543,0-.16-0.516-0.486-0.665-0.229.657-.812,0.536-0.728,1.164a1.58,1.58,0,0,0-1.019,1.118c-0.394,1.33.293,0.04,0.209,0.795a1.1,1.1,0,0,0-.566-0.166,0.619,0.619,0,0,1-.289.951l-0.2.3a0.409,0.409,0,0,0-.243-0.166,1.264,1.264,0,0,1-.243.582c0.588,0.081-.851.647-0.485,1.248a0.75,0.75,0,0,0-.648,1.081c-0.2.5-.832,0.23-0.972,0.831,0.249,0.068.208-.375,0.4-0.166a2.475,2.475,0,0,0-1.044,1.04c-0.026,1.112.041,0.2-.575,0.706a0.545,0.545,0,0,1,0,.5,0.271,0.271,0,0,0-.4-0.084c-0.132.311,0.276,0.039,0.242,0.25-0.184.084-.416,0.846-0.647,0.749a1.037,1.037,0,0,0,.242-0.666,5.041,5.041,0,0,0-1.537,2.162c-0.766-.147-0.988,1.676-1.3,1.747a0.539,0.539,0,0,0-.325-0.25,0.737,0.737,0,0,1,0,.5c-0.833-.2-1.2,1.885-1.375,1.913,0.032-.743-1.625,1.3-1.869,1.595-0.447.539-1.984,1.262-1.855,2.065-0.529,0-.553-0.079-0.567.5-0.6-.074-1.371.714-1.781,1.082-0.013.422-1.206,0.962-1.78,1.164-0.365,1.145-3.656,1.934-3.562,3.244-0.032.024-1.132,0.1-1.215,0.083-0.132.31,0.277,0.039,0.243,0.249a1.139,1.139,0,0,1-.718.26c-0.366.255-.009,0.283-0.238,0.529-0.293.316-.118-0.315-0.5-0.29,0.293,0.553-7.375,3.725-8.476,4.384-1.277.764-3.933,1.962-5.447,1.937-0.876,1.193-3.861.309-4.614,1.5a0.59,0.59,0,0,1,.4.25c-0.254.123-1,.122-1.052-0.25-0.6.063-.631,0.639-1.053,0.748-0.4-.565-0.842-0.2-1.538-0.166-0.155.617-1.622-.007-1.7,0.416,0.306,0.07.359,0.209,0.162,0.416-0.594-1.039-2.795.381-3.724,0.332-0.054-.357.4-0.415-0.243-0.415-0.1.267,0.262,0.065,0.162,0.332-0.4.731-1.6-.135-1.9,0.214a6.685,6.685,0,0,0-.693.2c-0.571-.406-1.184-0.082-1.781-0.333a1.8,1.8,0,0,1-.162.416c-0.047.184-.231-0.349-0.243-0.416-0.665-.14-1.04.526-1.376,0-0.647,0-1.295,0-1.943,0a0.687,0.687,0,0,1-.324.5c-0.112-.721-1.311-0.5-1.942-0.582a3.63,3.63,0,0,0,.242.666,1.241,1.241,0,0,0-.566.249c0.771,0.379.521-.254,0.89-0.5a0.312,0.312,0,0,1,0,.5c0.409-.1.481,0.279,0.891,0-0.363.477,0.423,0.354,0.485,0.083a0.317,0.317,0,0,1-.323-0.416c0.778,0.359,1.191.812,1.538-.083,0.26,0.173.683,0.106,0.566,0.582,0,0,1.153-.205.486,0.5a0.69,0.69,0,0,1,.729.167c-0.671.652,0.132,1.337,0.4,0.831-0.112-.153-0.915-1.205.227-0.649,0.526,0.258.63,0.257,0.663,0.733,0.631,0.436,1.053-.272,1.376-0.25a9.579,9.579,0,0,1,.892.492,0.617,0.617,0,0,1,.241-0.409c0.068,0.691.833,0.6,1.214,0.666a0.436,0.436,0,0,1-.08-0.416,0.654,0.654,0,0,0,.485.249,0.708,0.708,0,0,0-.89-0.582c-0.037.225,0.358,0.3,0.162,0.5a1.085,1.085,0,0,1-.567-0.333,0.772,0.772,0,0,0,.324-0.5c0.591,0.863,1.453-.171,1.862-0.416a0.56,0.56,0,0,1-.162.582c0.167,0.03.863-.352,0.729,0.166a3.464,3.464,0,0,0-.972.665,1.89,1.89,0,0,1,1.214-.166c0.248-.149-0.3-0.325,0-0.5a2.672,2.672,0,0,0,.405.5,0.8,0.8,0,0,1,.809-0.166c-0.085-.122-0.646-0.66-0.647-0.665a0.61,0.61,0,0,1,.485-0.416,1.046,1.046,0,0,0,.81,1.081c0.206-.095-0.178-0.382.081-0.5a1.67,1.67,0,0,0,1.051.163,8.945,8.945,0,0,0,1.668-.311,8.176,8.176,0,0,1,1.557-.447,2.094,2.094,0,0,0,1.067-.4,0.865,0.865,0,0,0,.4.249,2.2,2.2,0,0,1,1.861-.5,1.49,1.49,0,0,1,1.7-.582,0.438,0.438,0,0,1,0-.416,14.42,14.42,0,0,0,2.186-.166c-0.048-.572.458,0,0.243-0.582a0.867,0.867,0,0,0,.4.249,0.488,0.488,0,0,1,.486-0.5,1.454,1.454,0,0,1-.078.293c-0.032-.128,1-0.068.924-0.441-0.143-.734.453-0.084,0.53-0.1a0.352,0.352,0,0,1,.081-0.333,1.7,1.7,0,0,0,.971.083,1.233,1.233,0,0,1,.162-0.5c0.255-.025.307,0.415,0.641-0.063-0.015.023,0.64-.437,0.654-0.436,0.261,0.048-.042.475,0.452,0.049a2.746,2.746,0,0,1,.6-0.631c0.038,0.14.069,0.281,0.093,0.424a10.373,10.373,0,0,1,2.969-1.632,0.577,0.577,0,0,0,.733-0.423c0.086-.292,1.021-0.128,1.348-0.426a5.1,5.1,0,0,1,1.171-.749,6.629,6.629,0,0,1,.567-0.437c-0.034.464,1.015-.581,1.052-0.583,1.027,0.335.85-.991,1.457-0.748a0.407,0.407,0,0,1,.081-0.416c-0.092.614,2.545-1.3,2.833-1.331a7.2,7.2,0,0,0,1.133-1.081,24.512,24.512,0,0,1,3.117-2.458c0.707-.419,1.222-1.721,1.983-1.7q0.273-.286-0.081-0.416a2.82,2.82,0,0,0,1.522-1.264,6.32,6.32,0,0,0,.745-0.982c0.571-.069.926-0.984,1.279-1.347a16.232,16.232,0,0,0,1.613-1.946,1.209,1.209,0,0,1,.912-0.782q-0.208-.57.324-0.332c0.177-.624.017-0.227,0.648-0.666,0.168-.645-0.477.269,0.129-0.7,0.266-.423.792-0.4,0.923-0.881q-0.315.075-.243-0.249c0.273-.291.207,0.312,0.572-0.2,0.243-.342.531-0.517,0.8-0.908,0.351-.5.747-1.563,0.973-1.8a0.294,0.294,0,0,0,.486-0.249,1.068,1.068,0,0,1-.324-0.084,1.877,1.877,0,0,0,1.052-1.913,1.406,1.406,0,0,0,.4.084,0.9,0.9,0,0,0-.081-0.5c0.126-.129.591,0.059,0.566-0.249a0.448,0.448,0,0,1-.323-0.416,1.4,1.4,0,0,0,.728,0c0.076-.178-0.673-0.666.162-0.332a3.7,3.7,0,0,1,1.214-2.163c0.081-.371-0.4-0.123-0.4-0.416a0.581,0.581,0,0,0,.243-1c0.448-.109.485,0.451,0.485-0.332a0.215,0.215,0,0,0-.193.1c0.113-.484-0.226-1.616.436-1.433a0.486,0.486,0,0,1,0-.5A0.493,0.493,0,0,1,967.163,191.87Zm1.3-1.913c0.079,0-.011.068-0.024,0.053a1.19,1.19,0,0,1-.219.363,0.33,0.33,0,0,0-.324-0.249c0.256,0.3-.3.531-0.081,0.748,1.046-.924-0.009.123,0.729-0.083-0.266-.418.349-0.384,0.242-0.832h-0.323Zm1.3-2.661c0.348,0.239.069,0.751-.081,1a1.4,1.4,0,0,0,.648-1.081,1.576,1.576,0,0,0-.428.049A0.119,0.119,0,0,0,969.754,187.3Zm-0.4,1.913c0.072-.286.327-0.386,0.4-0.666C969.522,188.588,969,189.111,969.349,189.209Zm-0.405.249c-0.01.246-.268,0.25,0.163,0.25Q969.227,189.375,968.944,189.458ZM840.8,168.417v0.333C841.163,168.764,841,168.469,840.8,168.417Zm126.847,21.457c-0.34.058-.189,0.593-0.162,0.665A0.748,0.748,0,0,0,967.649,189.874Zm-0.243,1.747a0.656,0.656,0,0,1,.162.166C967.766,191.691,967.478,191.4,967.406,191.621Zm-0.4-.666c0.042,0.92.584-.018,0.647-0.083A0.551,0.551,0,0,0,967,190.955Zm1.538-5.156c-0.04.449,0.023,0.089,0.008,0.014C968.578,185.826,968.673,185.771,968.54,185.8Zm0.242,3.576a0.867,0.867,0,0,0-.485-0.5c0.128,0.409-.419.121-0.324,0.5C968.243,189.376,968.512,189.376,968.782,189.375ZM968.3,187.3c0.408-.335-0.282-0.39,0,0h0Zm1.052,0.665c0.012-.1.144-0.188,0-0.249C969.337,187.81,969.205,187.9,969.349,187.961Zm-1.12-.149a0.587,0.587,0,0,0-.337.232c0.224,0.156.919-.463,0.343-0.644-0.253.109-.242,0.234,0.026,0.375A0.035,0.035,0,0,0,968.229,187.812Zm-0.247.509c0.1,0.076-.047.272-0.09-0.027,0.048,0.33-.321.315-0.243,0.665C968.014,189.05,968.185,188.455,967.982,188.321Zm-0.09.971c-0.2-.267-0.5.194-0.162,0.249A2.216,2.216,0,0,1,967.892,189.292Zm5.343-22.788c0.065,0.558-.74,1.1.324,1.164C973.436,167.185,974.2,166.665,973.235,166.5Zm-3.967,20.21c-0.066.056-.078,0.087-0.07,0.1a0.378,0.378,0,0,0,.07.48c-0.376.271-.859,0.1-0.324,0.748a1.27,1.27,0,0,1,0-.5C969.418,187.566,969.6,187.146,969.268,186.714Zm3.319-19.461c-0.065.5,0.371,0.055,0,0h0Zm1.862,0.415c0.213-.228-0.03-0.457-0.243-0.5A0.478,0.478,0,0,0,974.449,167.668Zm-1.538-5.073q0.081-.249-0.162-0.166C972.7,162.6,972.749,162.651,972.911,162.6ZM971.7,174.821c-0.065.5,0.371,0.055,0,0h0Zm0.242-1.414c-0.065.5,0.371,0.055,0,0h0Zm0.324,1.663q0.122-.332-0.162-0.249C972.091,175.067,971.833,175.07,972.263,175.07Zm-1.942,6.987a0.485,0.485,0,0,0-.729-0.167A1.1,1.1,0,0,0,970.321,182.057Zm0.161-1c-0.088-.212.277-0.428-0.081-0.415C970.446,180.763,970.307,181.072,970.482,181.058Zm3.967-11.976c0.168-.047.1-0.538-0.081-0.5C974.445,168.791,974.079,169.085,974.449,169.082Zm-3.885,12.226a0.185,0.185,0,0,0,.08.333C970.749,181.53,970.751,181.331,970.564,181.308Zm0,1c-0.154-.065-0.209.01-0.209,0.083a5.674,5.674,0,0,1-.6.166c0-.035.488,1.416,0.486,1.414A6.851,6.851,0,0,1,970.564,182.306Zm-4.129,9.315a0.514,0.514,0,0,0,.405.249C966.879,191.655,966.553,191.4,966.435,191.621ZM970,184.053c0.06,0.255-.223.159-0.162,0.415C970.05,184.534,970.327,184.022,970,184.053Zm-0.4,1.579c0.089,0.439-.338.3-0.324,0.832C969.6,186.456,969.986,185.861,969.592,185.632Zm-0.648.749c-0.011.1-.144,0.189,0,0.25C968.956,186.532,969.089,186.442,968.944,186.381Zm0.324-1.247a0.354,0.354,0,0,0,.243.415C969.5,185.337,969.5,185.122,969.268,185.134Zm-0.243,3.659c-0.112-.123-0.385-0.043-0.324.249A0.33,0.33,0,0,0,969.025,188.793Zm-0.566-.333c0.653,0.4.657-.383,0-0.416v0.416Zm1.423-5.2a0.137,0.137,0,0,1,.032.127C969.962,183.418,969.985,183.348,969.882,183.261Zm-0.209,1.041c0.054-.166,0-0.222-0.162-0.166Q969.43,184.385,969.673,184.3Zm0.162-1.081c0.055,0.317-.384.084-0.405,0.332l0.324,0.25a1.37,1.37,0,0,1,.16-0.415A0.24,0.24,0,0,1,969.835,183.221Zm3.8-18.879a1.692,1.692,0,0,0-.4-0.748c-0.2.279-.152,0.45-0.567,0.332,0.141,0.194-.124.486,0.162,0.582a0.25,0.25,0,0,1,.243-0.25q0.557,0.5-.162.749a0.339,0.339,0,0,0-.243-0.333c0,0.418.364,0.476,0.324,0.749a1.229,1.229,0,0,0-.4.083,2.156,2.156,0,0,1,0,1.414c0.493,0.111.216-.553,0.243-0.665a1.979,1.979,0,0,1,1.376-.084c-0.289-.493-0.666-1.441-0.243-1.913A0.219,0.219,0,0,0,973.639,164.342Zm1.012-13.806c0.045,0.013-.062.1-0.04,0a0.547,0.547,0,0,0-.081.333C974.9,150.91,974.929,150.523,974.651,150.536Zm-88.6-19.71a10.331,10.331,0,0,1-.324,1.164,0.9,0.9,0,0,0,.4-1.085C886.152,130.905,886.15,130.881,886.053,130.826Zm88.234,20.293a0.383,0.383,0,0,0-.324-0.333C973.889,151.1,974.1,151.317,974.287,151.119Zm-1.619-6.82c0.032,0.123.47-.681,0.189-0.685a0.227,0.227,0,0,0-.108.019C972.82,143.905,972.286,144.126,972.668,144.3Zm-130.652-6.57a0.2,0.2,0,0,0,.243.249A0.2,0.2,0,0,0,842.016,137.729Zm132.94,21.687c0.112-.149.078-0.2-0.1-0.147Q974.641,159.529,974.956,159.416Zm-0.588.934a2.934,2.934,0,0,0,0,1C975,161.3,974.514,160.453,974.368,160.35Zm-0.162-6.9c0.143,0.209.486-.209,0.162-0.249A2.535,2.535,0,0,1,974.206,153.447Zm0.243-.832c-0.024.051-.2,0.321,0,0.333C974.472,152.9,974.65,152.628,974.449,152.615Zm-73.016,76.347c0.366,0.2.339-.613,0.486-0.748a1.638,1.638,0,0,0-1.215.5c-0.234-.769-0.233-0.157-0.809-0.582a1.42,1.42,0,0,1-.486.416q-0.182-.822-0.663-0.292c-0.144.029-1.334,0.5-1.361,0.458a1.372,1.372,0,0,1,.567-0.5c-0.336-.1-1.056.129-1.373,0,0.009,0.075-.052,1.171-0.408.747,0.1-.171.208-0.337,0.324-0.5-0.232-.176-0.413.257-0.647-0.083a0.343,0.343,0,0,0,.4-0.249c-0.541-.014.419-0.526-0.662-0.695a4.39,4.39,0,0,0-1.767.029c-0.018-.458-0.639-0.195-0.97-0.375-0.968-.526-0.42.155-1.134,0.292a0.7,0.7,0,0,1,.234-0.385,5.3,5.3,0,0,1-1.527.07,0.21,0.21,0,0,0,.085.178,1.184,1.184,0,0,1-.625-0.288c-0.213-.249-0.119-0.8-0.6-0.656a0.351,0.351,0,0,1-.08.582c0.007-.124-0.509-1.24-0.648-0.748a0.209,0.209,0,0,1,.162.332,1.559,1.559,0,0,1-1.121-.9c-0.039.183-.713,1.488-0.822,0.649,0.769-.033-0.15-0.251-0.4-0.25a8.3,8.3,0,0,1-.662-0.952c-0.183.6-.865-0.171-1.118,0.37a4.623,4.623,0,0,0-.891-0.915c-0.261.69-.36-0.163-0.648-0.166a2.735,2.735,0,0,1-.89.582c0.12-.792.384-0.427,0.809-0.582a0.469,0.469,0,0,0-.4-0.582,0.328,0.328,0,0,1-.324.416c0.049-.508-0.438-0.412-0.729-0.333a1.469,1.469,0,0,0,.081-0.416,5.187,5.187,0,0,0-.809.583c0-.747.478-0.294,0.4-0.666a5.177,5.177,0,0,1-2.105-.665c0.482-.989-1.43-0.024-0.81-0.832a6.34,6.34,0,0,1-1.214-.665,0.431,0.431,0,0,1,.081.415c-0.546-.421-0.1-0.2-0.364-0.529a3.31,3.31,0,0,0-1.093-.385,0.345,0.345,0,0,0,.162-0.416c-0.289-.1-0.43.531-0.647,0.083,0-.072.314-0.547-0.162-0.416a1.791,1.791,0,0,0-.081.416c-0.182-.183-0.817-0.339-0.567-0.748-0.553.452-1.657-.933-1.943-1.248-0.417.336-.629-0.113-0.566-0.5a2.516,2.516,0,0,0-.891,0c0.461-.169,0-0.794-0.324-0.582-0.1.267,0.262,0.066,0.162,0.333-0.564.188-.239-0.3-0.4-0.5-0.223,1.013-.9-0.67-0.647-0.582a3.667,3.667,0,0,0-.727-0.276,0.727,0.727,0,0,1,.079.276c-0.213.025-.265-0.115-0.242-0.332a0.057,0.057,0,0,1,.013,0c-0.43-.167-0.837-0.389-0.742-0.666-1.232-.172-2.368-2.54-3.319-2.162,0.072-1.091-1.634-1.63-2.266-2.079-0.062-.261.274-0.112,0.161-0.416-0.5.1-1.717-1.01-1.862-1.5a1.747,1.747,0,0,1-.93-0.79c-0.523-.5-0.384.1-0.85-0.042a1.089,1.089,0,0,1,.243-0.582q-0.561-.054-0.243-0.5c-0.377-.381-0.853.008-0.567-0.748a4.934,4.934,0,0,1-1.295-.749,0.231,0.231,0,0,1,.4-0.083,0.562,0.562,0,0,0-.566-0.416c-0.077.24,0.253,0.245,0.081,0.416-0.35-.139-0.37-0.583-0.81-0.582-0.205-.035.06,0.385-0.243,0.249a0.9,0.9,0,0,1,.243-0.748,0.654,0.654,0,0,0,.486.249,1.042,1.042,0,0,0-.729-0.831c-0.1.1-.175,0.558-0.4,0.332,0.471-.77-1.066-3.075-1.862-3.326-0.09.264,0.366,0.557,0.162,0.748a3.819,3.819,0,0,0-.891-0.748c-0.077.178,0.284,0.431,0.162,0.5a0.543,0.543,0,0,1-.4-0.749c0.194,0.359.376-.137,0.648-0.083-0.322-.676-0.182-0.949-0.89-0.749,0.247-.806-0.809-1.818-1.457-2.079,0.068-.372.425-0.032,0.566,0a0.406,0.406,0,0,0-.809,0c-0.363.046-.308-0.514-0.405-0.748a0.556,0.556,0,0,0,.486-0.5c-0.118.107-1.037,0.148-.744-0.218,0.346-.432.268,0.223,0.582,0.135,0.077-.374-2.643-0.88-1.457-2.163-0.337-.219-0.371.109-0.486,0.333a2.157,2.157,0,0,0-.648-1.164,2.481,2.481,0,0,0,.486-0.25,0.784,0.784,0,0,1-.728-0.831c-0.816-.118-0.269-0.968-0.243-1.165a0.71,0.71,0,0,1-.648-1c-0.5-.022-0.94-1-0.89-1.663a0.283,0.283,0,0,0-.324.166,0.55,0.55,0,0,1-.081-0.332c0.109,0.022.217,0.05,0.324,0.083a3.783,3.783,0,0,0-.53-1.049c0,0.132-.465.611-0.523,0.134,0.624-.985.125-0.747-0.068-1.64-0.135-.632-0.5-1.3-0.573-1.906a4.971,4.971,0,0,0-.852-1.7c0.07,0.005-.685-2.089-0.773-2.324a0.5,0.5,0,0,1-.243.333c-0.266-.377.243-0.429,0.243-1a0.481,0.481,0,0,1-.324-0.249c0.028-.747.353,0.372,0.022-0.662q0.3-.566-0.244-0.649a6.5,6.5,0,0,1-.506-2.1c-0.164-.01-0.714.725-0.81,0a1.709,1.709,0,0,0,.486.083c0.073-.325-0.272-1.452-0.081-1.5a0.412,0.412,0,0,0,.242.167,7.557,7.557,0,0,0-.566-1.414,0.218,0.218,0,0,1,.324-0.084,0.6,0.6,0,0,0-.243-0.5,0.407,0.407,0,0,1-.081.416c-1.357-.544.753-1.552,0.081-2.08a0.48,0.48,0,0,1-.309.243c0.1-.185.7-2.278-0.339-1.657a7.724,7.724,0,0,0-.081-2c0.109,0.023.218,0.051,0.324,0.083a3.544,3.544,0,0,1,.162-1.912c-0.267-.144-0.249-1.805-0.245-2.119a55.145,55.145,0,0,1,.569-6.2,0.407,0.407,0,0,1-.4,0,0.3,0.3,0,0,0,.081-0.5c0.316-.011.745-0.684,0.324-0.832a0.987,0.987,0,0,1-.324.666c-0.193-.488.32-0.982,0.243-1.5,0.109,0.023.217,0.05,0.324,0.083,0.057-.4-0.358-0.446-0.324-0.832a0.4,0.4,0,0,0,.4.083c0.076-.234-0.125-1.1-0.08-1.5-0.213-.043-0.274.485-0.486,0.167,0.02-.15.845-1.465,0.243-1.664,0.5-.511.647,0.654,0.647-0.5-0.773-.3-0.231-0.22-0.161-1.581,0.84,0.131-.17-0.985.566-0.832a2.055,2.055,0,0,1-.1-0.76,2.021,2.021,0,0,1,.3-1.247c1.241-.685-0.282-1.612-0.61-1.9,0.106-.028.986-0.359,0.729,0.166,1.063-.192-0.94-1.013-0.243-1.331a1.684,1.684,0,0,0,.639.63,10.075,10.075,0,0,0,.818-3.54c0.277-.578,1.318-4.836,1.862-4.658a4.2,4.2,0,0,1,.223-1.016,8.51,8.51,0,0,1,.506-1.229c-0.379-.444.334-0.444,0.2-1.129-0.223-1.11.9-1.036,1.18-1.7-0.128-.195-0.425.191-0.486-0.166,1-.118.791-1.248,0.971-1.664,0.081-.371-0.4-0.123-0.4-0.416,0.653,0.034.489,0.228,0.79,0.539-0.716-.737,1.629-2.985,1.152-3.366,0.762,0.034-.363-1.315.486-1.331a6.542,6.542,0,0,1-.243.749c0.436,0.131,1.525-2.084,1.7-2.662-0.325-.309-0.583.984-0.89,0.083a0.589,0.589,0,0,1,.486,0c0.054-.192-0.212-0.586.08-0.665a1.128,1.128,0,0,0,.648.5q0-.451.4-0.272,0.485-.121.163-0.632c0.015-.08.283-1.228,0.258-1.334,0.418,0.364,1.451-1.435,1.9-1.432a5.485,5.485,0,0,0-.213-0.655c0.661,0.155,1.467-1.71,1.809-1.967,0.84-.634.852-2.11,2.158-2.274-0.372.046-.266-0.732,0.162-0.665q-0.141.4,0.324,0.332c0.132-.31-0.277-0.039-0.243-0.249a5.859,5.859,0,0,0,.728-0.666,3.966,3.966,0,0,1-.4-0.5c0.478,0.11,2.347-1.72,1.7-2.246,0.207-.2.393,0.163,0.647,0.083a1.743,1.743,0,0,1,.324-0.5c0.257,0.209-.26.5,0.081,0.582,0.516-.588.233-1.5,1.214-1.663,0.075,0.525-.819.587-0.567,1.081a5.087,5.087,0,0,0,1.62-1.746,0.38,0.38,0,0,1-.4-0.083,6.746,6.746,0,0,1,1.133-.167,0.8,0.8,0,0,0,.2-0.574c0.158,0.048.282,0.414,0.442,0.158a1.9,1.9,0,0,1-.728-0.914c-0.012-.006,1.176-0.364,1.214-0.416a0.506,0.506,0,0,0,.324.5c-0.077-.2-0.024-0.307.162-0.333,0,0.6-.891.874-0.891,1.5q0.423-.043.243,0.333a19.4,19.4,0,0,0,1.541-1.21c0.072-.55-1.484-0.6-0.65-1.618-0.168-.094-0.258-0.093-0.309-0.042a1.636,1.636,0,0,1,1.442-.873,3.026,3.026,0,0,0-.081-0.333c0.118,0.271.716-.031,0.648,0.416-0.442-.279-0.657.54-1.053,0.083a1.542,1.542,0,0,0,.081.416,2.834,2.834,0,0,1-.647.084c0.468,0.115-.267.574,0.333,0.647a0.575,0.575,0,0,1,.24-0.315,0.224,0.224,0,0,0,.236-0.166,0.274,0.274,0,0,0-.072.008,3.891,3.891,0,0,1,1.368-.923,0.576,0.576,0,0,0,.161.333c-0.934.221-.981,0.331-0.971,1.164a2.469,2.469,0,0,1-.567-0.25,1.487,1.487,0,0,0,.648.832,1.635,1.635,0,0,1,.729-1.081,0.3,0.3,0,0,1-.405-0.166,0.886,0.886,0,0,1,.809-0.25,0.327,0.327,0,0,0-.081.416,1.7,1.7,0,0,0,.567-0.915c0.476,0.028,1.928-1.122,1.884-1.728-0.023-.321.53,0.151,0.544,0.148,0.182-.361.545-0.284,0.263-0.593a1.588,1.588,0,0,1,.466.094c0.2-.729-0.309.048,0.208-0.7,0.057-.084.589-0.585,0.682-0.13-0.167.173-.318-0.131-0.324,0.25,0.378,0.382.536-.483,0.567-0.5,0.175,0.03,1.394-1.057,1.7-.749a0.421,0.421,0,0,0-.162.25c0.6,0.25.776-.82,1.216-0.334q0.027,0.512.537,0.139c0.458-.218.157-0.56,0.433-0.637a0.428,0.428,0,0,0,.485.083c-0.028-.484.593-0.507,0.891-0.249a1.841,1.841,0,0,1,.854-0.549,0.291,0.291,0,0,1,.036-0.45c0.994,0.477,1.752-.336,2.609-0.711a2.7,2.7,0,0,0,1.087-.349c-0.137-.074-0.154-0.164-0.053-0.27a0.719,0.719,0,0,0,1.214-.333,1.118,1.118,0,0,1-.4-0.333c0.4,0.213,1.774-.849,2.228-0.623,0.321,0.161-.026-0.741.038-0.791a0.486,0.486,0,0,0,.729.416,0.235,0.235,0,0,1,.081-0.25c2.214,0.132,5.129-1.967,7.652-1.691,1.452,0.159,3.164-.861,4.652-0.3,0.252-.5,3.366-0.176,3.8,0a0.229,0.229,0,0,0-.081-0.333,0.467,0.467,0,0,1,.567,0,0.417,0.417,0,0,0-.162.25c0.4-.057.384-0.246,0.648-0.25,0.042,0.376.809,0.654,0.809,0.166a0.721,0.721,0,0,1-.566-0.083c0.415-.263,1.209.633,1.376,0.166,0.094-.265,1.392-0.081,1.457-0.083,0.019-.17-0.489-0.367-0.324-0.5,1.091,1.037,2.952-.1,3.967.915a0.355,0.355,0,0,1,.243-0.416,0.669,0.669,0,0,0,.566.5c0.1-.267-0.261-0.066-0.162-0.333,0.735,0.159,4.534.416,4.533,0.416,0.639,0.74,2.333-.028,2.915,1a4.729,4.729,0,0,1,2.428.665,6.156,6.156,0,0,1,2.671.665,23.34,23.34,0,0,0,3.483.953c0.727,0.085,3,1.7,3.49,1.229-0.023.022,1.821,0.9,2.013,0.978,1.631,0.667,3.063,1.682,4.595,2.333,0.8,0.341,1.386.983,2.126,1.236,0.54,0.185.892,0.713,1.493,0.923,0.7,0.244,1.535,1.336,2.471,1.247a0.294,0.294,0,0,0-.162.332,5.6,5.6,0,0,1,2.186,1.5c0.26,0.1.064-.268,0.324-0.166,0,0.393,1.413,1.362,1.861,1.5,0.211,0.239,1.045,1.573,1.457,1.58a0.35,0.35,0,0,1,.082-0.332,11.518,11.518,0,0,1,.809.914c0.018,0.656.9,1.16,1.271,1.6,1.25,1.48,2.783,2.8,4.076,4.326,0.626,0.737,3.665,3.587,3.476,4.55,1.115,1.494,2.053,3.31,3.231,4.711a16.959,16.959,0,0,1,1.975,3.413c0.6,1.2,1.715,2.818,1.918,4.018a15.991,15.991,0,0,1,1.89,4.716c0.186,0.8.89,1.064,0.7,1.854,0.185-.1.293-0.046,0.324,0.166-0.333.011,0.393,1.618,0.567,1.58,0.213-.3-0.137-0.59.161-0.831,0.034,0.055-.054,2.814,0,2.744a1.338,1.338,0,0,1,.391,1.011,3.959,3.959,0,0,0,.4,1.935,2.637,2.637,0,0,1,.182,1.295c0.188,0.092.227-.386,0.325-0.166a1.234,1.234,0,0,0,.323,1.664c-0.51.461,0.054,1.389,0.085,1.927,0.05,0.866.146,1.689,0.226,2.748,0.1,1.374.238,2.588,0.272,3.953,0.011,0.474.414,1.753,0.107,2.1-0.334.38,0.266,0.216,0.282,0.414-0.329.184-.231,2.151-0.081,2.246a0.25,0.25,0,0,1,.243-0.25c0.207,0.619-.351.992-0.4,1.664a1.154,1.154,0,0,1,.647-0.333,0.419,0.419,0,0,0-.161.249,1.15,1.15,0,0,0,.971-0.416c-0.756-.052.011-3.037,0-3.077-0.136-.025-0.27-0.052-0.4-0.083q0.413-.756.89,0.166c0.224-.331-0.787-1.746.324-1.746,0.008-.176-0.147-1.476-0.486-1.164,0.43,0.425-.3,1.927-0.4,2.328-0.014-.013-0.083-1.042-0.081-1.081,0.332,0.017.531-.631,0.243-0.749-0.129-.1-0.294.394-0.405,0.25,0.256-.525-0.052-0.466.486-0.665a1.727,1.727,0,0,1,.243-1.331,0.686,0.686,0,0,0,.323.915,5.254,5.254,0,0,1,.486-2.745c-0.742.175-.006-1.216-0.728-1.164-0.106.247,0.214-.032-0.035,0.618a1.767,1.767,0,0,1-.775.713,1.656,1.656,0,0,1-.08-0.666,1.849,1.849,0,0,0,.566.333c0-.284-0.837-0.782-0.729-1q0.531,0.312.648-.333a1,1,0,0,1-.648-0.665,6.611,6.611,0,0,1,.648.333c0.217,0.021-.186-0.241.081-0.25,0.342-.06.119,0.406,0.324,0.5a1.667,1.667,0,0,0,.173-1.481c-0.394-.394-0.215.711-0.416,0.816-0.017-.129-0.2-0.368-0.243-0.582a1.359,1.359,0,0,0-.4.083l-0.486-.749c0.6,0.383.316-.754,0.323-0.831,0.444-.134.175,0.373,0.486,0.415,0.188-.548-0.708-0.567-0.323-1.081a1.17,1.17,0,0,0,1.052.333c0.092-.025-1.311-0.734-0.81-0.832a0.787,0.787,0,0,0,.567.167c-0.135-.225.107-1.067-0.162-1.165a0.7,0.7,0,0,1-.647.5,0.414,0.414,0,0,1-.163.665c0.092-1.038,0-1.889.163-2.828-0.429.019-.354,0.17-0.243-0.25a0.454,0.454,0,0,0-.486,0,1.706,1.706,0,0,0,.243.5c-0.26-.1-0.064.268-0.324,0.166a1.457,1.457,0,0,0-.4-0.666,1.825,1.825,0,0,0,.4-0.582c-0.332-.015-0.281.4-0.648,0.333a1.548,1.548,0,0,1,.648-0.748,0.787,0.787,0,0,0-.648,0c0.053-.474-0.407-1.492.4-1.5a0.343,0.343,0,0,0,.054.294c-0.011-.256.27-1.506,0.27-0.544,0.493-.126.023-0.576,0.081-0.832a0.257,0.257,0,0,1-.324.25c0.142-.324-0.14-0.942.324-1.081a2.439,2.439,0,0,0-.81.083,11.3,11.3,0,0,1-.162-3.493c-0.287.164-1.476-4.1-1.457-4.242a0.473,0.473,0,0,1-.4-0.333,0.671,0.671,0,0,0,.179,0,3.783,3.783,0,0,1-.422-0.834c-0.151.008,0.133,0.325-.162,0.333a1.619,1.619,0,0,0-.891-1.248c-0.22.275,0.389,0.692-.081,0.915-0.1-1.08.174-2.14-1.295-1.58a0.458,0.458,0,0,1,.081-0.582,0.491,0.491,0,0,0,.243.332c0.014-.259.081-0.457,0.081-0.831,0.663,0.251-.381.5,0.567,0.5-0.278-1.078-1.23-4.068-2.186-4.575,0.49-.2-0.862-2.325-1.141-2.486-0.409-.235-0.03-0.279-0.235-0.674-0.26-.1-0.064.269-0.324,0.166,0.188-.616-0.1-0.017-0.162-0.415-0.021-.2.316,0.232,0.243-0.167a0.412,0.412,0,0,0-.405,0c0.2-.729-0.291-0.7-0.691-1.378a16.285,16.285,0,0,0-1.395-2.508,20.906,20.906,0,0,1-2.283-3.047c-0.486-.706-1.474-1.249-1.864-2.049-0.323-1.055-1.762-1.929-2.423-2.735-0.3-.37-1.95-2.172-2.353-2.088a8.115,8.115,0,0,0-3.562-2.911c-0.308-.992-1.535-1.444-2.266-1.664,0.209-.926-3.346-2.353-3.8-2.411a0.289,0.289,0,0,1-.081-0.416,9.465,9.465,0,0,1-1.942-.749,0.256,0.256,0,0,0,.323-0.249,9.821,9.821,0,0,1-1.133-.666,0.353,0.353,0,0,1-.162.333,7.658,7.658,0,0,0-1.271-1,5.056,5.056,0,0,0-1.805-.746c-0.553-.756-2.175-1.061-3-1.6-1.93-1.245-4.248-1.577-5.68-2.565a7.213,7.213,0,0,0-2.892-.827,5.025,5.025,0,0,1-1.739-.562c-0.395-.262-0.7.108-0.888-0.191-0.418-.661-4.591-1.19-5.224-1.162-0.516,0-1.522-.036-1.943,0a15.413,15.413,0,0,1-1.552-.251c-0.423-.243-0.406.136-0.795-0.331-0.493-.062-1.2.344-1.538,0.249,0.058-.55-8.885-0.389-9.876-0.249,0.043-.163-3.3-0.164-3.5.227a11.667,11.667,0,0,1-2.1.143,4.425,4.425,0,0,0-1.358.628c-0.289.017-.168-0.308-0.567-0.332-0.052.236,0.445,0.364,0.162,0.582-0.526-.566-0.977-0.028-1.3.249a0.785,0.785,0,0,0-.486-0.5,0.324,0.324,0,0,1-.081.5,0.5,0.5,0,0,0-.243-0.333,2.94,2.94,0,0,0-.485.666,1.221,1.221,0,0,0-.243-0.416,0.592,0.592,0,0,0-.243.5c-0.08.009-2.03,0.069-2.247,0.149,0.073-.067.147-0.133,0.224-0.2,0.2-.364-0.512.171-0.583,0.28a0.707,0.707,0,0,0-.308-0.233,5.843,5.843,0,0,1-.162.582c-0.388.073-.374-0.369-0.753-0.232a4.165,4.165,0,0,0-.219.482,1.489,1.489,0,0,0-1.3,0c0.379,0.106-.127.476-0.243,0.5-0.272-.5-0.983-0.238-1.3.014a1.408,1.408,0,0,1-1.209.318,0.576,0.576,0,0,0,.162.333c-0.721.282-1.018,0.563-1.619,0.249-0.144.089,0.164,0.776-.486,0.5,0.023-.112.049-0.223,0.081-0.333-0.312-.029-0.909,1.233-1.215.5a2.947,2.947,0,0,0-.242.5c-0.3-.117.014-0.124,0-0.332a11.856,11.856,0,0,1-1.3.669c0-.047-0.059-0.127-0.073,0-0.074-.062-2.484,1.364-2.941,1.527a8.824,8.824,0,0,0-1.6.829,3.878,3.878,0,0,1-1.043.305,1.333,1.333,0,0,1-.486.749,1.155,1.155,0,0,0-.08-0.333c-1.231.668-2.881,1.642-3.967,2.329-0.274.172-1.734,1.89-1.942,1.414-0.4.456-1.325,1.773-1.982,1.51a0.208,0.208,0,0,1-.117.213c0.5,0.117.13,0.654-.168,0.855q-0.046-.165-0.081-0.333c-0.073.191-.18,0.219-0.324,0.083a0.416,0.416,0,0,0,.162-0.249,0.527,0.527,0,0,0-.486.748c-0.546-.351-2.437,1.833-2.868,2.251a22.473,22.473,0,0,1-2.424,2.3,1.408,1.408,0,0,0-.5.736,0.18,0.18,0,0,0-.276.207,0.5,0.5,0,0,0,.167-0.006,1.2,1.2,0,0,1-.376.345c-0.631.394-.09,0.409-0.525,0.994-0.374.5-.863,0.206-1.22,0.917a5,5,0,0,1-1.122,1.409,0.327,0.327,0,0,1,.324.083c-0.236.591-.491-0.14-0.81,0.166,0.05,0.263.238,1.7-.485,0.749a6.376,6.376,0,0,0-.486.915c0.02,0.216.258-.292,0.324,0-0.338.4-.23,0.31-0.558,0.35-0.525.064-.115,0.516-0.494,0.73-0.264-.817-0.642,1.246-0.648,1.248-0.1-.228-0.77-0.585-0.81-0.083,0.08,0.232.775,0.091,0.236,0.523-0.118.095-.706,0.159-0.559,0.392,0.1-.2.315,0.269,0.4-0.083a0.893,0.893,0,0,0,0,.582,0.873,0.873,0,0,1-.486,0c-0.02.331,0.082,0.347,0.126,0.337a2.7,2.7,0,0,0-.434.359,1.041,1.041,0,0,0-.259,1.383c-0.8,0-.321-0.518-0.891-0.582-0.225.273,0.225,0.421,0.243,0.665a0.657,0.657,0,0,0-.323,1c-0.451,0-.334.683-0.4,1a1.233,1.233,0,0,0-.81-0.665,0.339,0.339,0,0,0,0,.5,0.63,0.63,0,0,1-.566.083l0.081,0.5a2.763,2.763,0,0,0-1.134,1.58c0.049,0.016-1.5,3.209-1.269,3.482a1.24,1.24,0,0,1-.35-0.238,4.6,4.6,0,0,0,.243.665c-1.158.322-1.293,1.729-1.558,2.763a0.17,0.17,0,0,0-.142-0.1c0.016,0.125-.051.334,0.074,0.346a2.585,2.585,0,0,1-.155.4,0.25,0.25,0,0,1,.243.249,1.03,1.03,0,0,1-.485-0.249c-0.238.26-.414,1.023,0.081,1.164a0.689,0.689,0,0,1-.567-0.083,3.411,3.411,0,0,1,.081,1.081c-0.377-.488-0.433.156-0.446,0.2-0.24.809-.018,0.237,0.2,0.883-0.228.152-.459-0.078-0.486,0.333a0.221,0.221,0,0,0,.254-0.146c-0.035.033,0.174,1.318-.658,0.811-0.064.343,0.674,0.335,0.161,0.749-0.263.042-.024-0.414-0.324-0.333a0.5,0.5,0,0,0,.4.583,0.672,0.672,0,0,1-.242.415c-0.03-.506-0.322-0.077-0.486.166,0.107,0.022.873,0.843,0.566,0.915-0.15-.11-0.645-0.562-0.728-0.083a0.232,0.232,0,0,1,.324,0,1.257,1.257,0,0,0-.324.665c0.332,0.052.093-.457,0.485-0.332-0.237.276,0.454,1.3-.4,0.416a4.28,4.28,0,0,1,.4.748c-0.378.1-.209-0.283-0.485-0.332-0.217.542,0.239,1.153-.486,1.58,0.061,0.181.486-.067,0.4,0.249a2.309,2.309,0,0,0-.809.666c0.275,0.279.909,0.313,0.728,1.164a1.4,1.4,0,0,0-.647-0.416c-0.265.327,0.4,0.793-.081,1.081a0.508,0.508,0,0,0-.243-0.665c0.21,0.351-.187.149-0.243,0.415a1.077,1.077,0,0,1,.486.666,0.75,0.75,0,0,1-.648-0.249c0,0.239.718,1.054,0.324,1.33a1.516,1.516,0,0,1-.486-0.416c0.09,0.389.584,1.009,0.243,1.414a0.222,0.222,0,0,1-.243-0.083,0.438,0.438,0,0,0,.081-0.416c0.063-.008-1.023,2.456,0,2.246a15.8,15.8,0,0,1-.972,1.912c-0.053.208,0.377-.04,0.324,0.167a2.949,2.949,0,0,0-.294,1.189c-0.027.146-.246,1.047-0.273,1.056a0.875,0.875,0,0,1,.325.167c-0.515.605,0.023,2.062-.567,2.5,0.709,0,.1,1.052.242,1.58-0.637-.106.024,1.042-0.251,1.186a8.482,8.482,0,0,0-.011,1.562c0.079,0.787.723,0.713,0.748,1.161a1.513,1.513,0,0,1-.728-0.167c0.11,0.747-.319,1.57.567,1.747-0.187.86-.393-0.328-0.376,0.876a2.185,2.185,0,0,0,.009.788,1.137,1.137,0,0,1,.205,1.163c0.451,0.115.158-.458,0.485-0.5,0.024,0.095-.468,1.9-0.485,1.913,0.181,0.24.582-.226,0.566,0.25-0.7-.109-0.369.962-0.243,1.331,0.558-.029.058,1.32,0.4,1.912a37.172,37.172,0,0,0,.444,3.994,11.8,11.8,0,0,1,.609,2.909c0.323,1.361.815,2.671,1.207,4.01a10,10,0,0,0,.735,1.645,2.487,2.487,0,0,0,.324.749,0.228,0.228,0,0,0-.324.249c0.836,0.064,1.867,4.664,2.354,5.575,0.33,0.617.717,1.314,1,1.907,0.213,0.447.866,0.733,0.614,1.334,0.181,0.24.582-.226,0.566,0.25a2.638,2.638,0,0,0,.972,1.829c0,0.729.06,0.839,0.728,0.749,0,0.268.28,0.528,0,.748,0.7,0.457.263,0.195,0.324,0.666,0.867,0.181.935,1.326,1.233,1.644a2,2,0,0,1,.71,1.266,2.124,2.124,0,0,1,.759,1.113,3.371,3.371,0,0,0,.855,1.11q0.918,0.412.167,0.6a0.45,0.45,0,0,0,.486,0,1.387,1.387,0,0,0,.449.869,1.944,1.944,0,0,1,.765,1.21c0.3,0.136.038-.284,0.242-0.249a1.335,1.335,0,0,0,.81.915,0.865,0.865,0,0,0-.243.332c0.434,0.053,2.733,3.323,3,2.828-0.042.786,1.055,1.346,1.473,1.993a1.123,1.123,0,0,0,1.2.668c-0.159.464-.1,0.461,0.323,0.25a1.446,1.446,0,0,0,.567,1,0.3,0.3,0,0,0-.162-0.25c0.444,0,.716.932,1.215,0.416-0.126.945,0.351,0.767,0.728,0.915q-0.033.168-.081,0.333c0.212-.04,1.616.24,1.052,0.416a0.228,0.228,0,0,0-.323-0.25,1.714,1.714,0,0,0,.971.915,0.794,0.794,0,0,0-.243-0.665,0.52,0.52,0,0,1,.486.415,0.83,0.83,0,0,0,.323-0.249c0,0.46-.6,1.257.486,1.331,0.037-.226-0.358-0.3-0.162-0.5a6.48,6.48,0,0,0,1.071.621,0.583,0.583,0,0,1-.585.045c0.132,0.191.881,0.165,0.891,0.333,0.012,0.223-.406.1-0.325,0.5a1.5,1.5,0,0,1,1.3.415c-0.518.1,0.906,0.7,0.971,0.832,0.167-.723-0.682-0.28-0.567-0.832a4.461,4.461,0,0,1,1.026.962,0.577,0.577,0,0,0-.135.036,0.752,0.752,0,0,0,.41.272c0.354,0.4.641,0.737,0.642,0.727,0.459,0.11.3-.738,0.759-0.281,0.393,0.39-.02.221,0.051,0.7a3.206,3.206,0,0,1,.809.083c0.079-.152-0.264-0.277-0.081-0.332q0.534,0.186,0,.665c0.8-.042,1.583,1.258,2.105,1.331,0.275-.292-0.183-0.306-0.162-0.582a0.556,0.556,0,0,0,.648-0.333c-0.013-.057.77,0.844,0.161,0.748a0.389,0.389,0,0,1,0-.415c-0.735.342-.279,0.9,0.325,0.582,0.742,0.463.3,0.546,0.89,0.332,0.506-.059.054,0.634,0.081,0.749a2.632,2.632,0,0,0,.567-0.249,0.9,0.9,0,0,0,.485.249,0.274,0.274,0,0,0-.162.416c0.173-.046,1.213-0.355,1.295-0.333,0,0.86.484,0.087,0.567,0.416l-0.324.416c0.235-.074,1.321.328,1.215-0.416,0.026,0.166.054,0.332,0.08,0.5a0.621,0.621,0,0,0,.543-0.573,2.494,2.494,0,0,0,1.3.53,0.228,0.228,0,0,1-.065-0.207,0.2,0.2,0,0,1,.243.25h-0.011c0.2,0.048.333,0.08,0.335,0.084,0.1,0.267-.261.066-0.162,0.333,0.335-.206.963,0.39,1.376,0.416,0.233-.712.837-0.188,1.3-0.167,0.1,0.267-.261.066-0.161,0.333,0.991,0.072-.181-0.582,1.133.249a0.742,0.742,0,0,1,.81.167c0,0.626,1.112.659,1.537,0.416-0.073.7,0.395,0.034,0.567,0.083,0.413,0.544.721,0.873,0.809,0.332,0.3,0,.739.546,0.486,0.832,0.668-.423.5,0.417,0.081,0.582,0.032-.417-0.626-0.5-0.812-0.544a0.97,0.97,0,0,1-.483-0.537,0.71,0.71,0,0,0,.971.915c0.058,0.412,1.141.939,1.376,0.582q0.029,0.293.082,0.582a5.64,5.64,0,0,1,1.861.083,0.5,0.5,0,0,1,.486-0.416,0.526,0.526,0,0,0,.081.666c-0.063-.422.43-0.522,0.4-0.915,0.681,0.17-.4.813-0.162,1.081a0.64,0.64,0,0,1,.728-0.166,0.351,0.351,0,0,1,0-.333c0.169,0.159.331,0.326,0.486,0.5,0.272-.314.191-0.9,0.648-1.081,0.034,0.342-.459.715,0.073,0.881,0.057,0.017.759,0.01,0.412-.132a0.394,0.394,0,0,1-.566-0.167c0.154-.026.381,0.027,0.485,0,0.327-.221-0.087-0.348.081-0.582a4.175,4.175,0,0,1,1.307.279,0.117,0.117,0,0,0,.069.054c0-.011.01-0.018,0.014-0.028a3.35,3.35,0,0,0,.927.183c0.185,0-.211-0.411-0.212-0.405a0.508,0.508,0,0,1,.324-0.083c0.084-.3-0.3-0.132-0.243-0.416q0.485,0.133.971,0.25l0.162-.5c1.4,0.617-.05.023,0.81,0.083a2.265,2.265,0,0,0,.4.831c0.16-1.247.99,0.264,1.134-.415C901.566,229.208,901.459,229.153,901.433,228.962Zm73.1-79.174v0.332C974.8,150.138,974.849,149.73,974.53,149.788ZM947.817,143.3c0.054-.167,0-0.222-0.162-0.167C947.6,143.3,947.655,143.356,947.817,143.3Zm-48.731,18.13c-0.025.219,0.111,0.273,0.323,0.25C899.49,161.4,899.3,161.408,899.086,161.431Zm37.155-19.045q-0.121.374,0.243,0.249l-0.211-.216C936.314,142.42,936.366,142.375,936.241,142.386Zm-22.99,18.463c-0.011.378,0.312,0.279,0.437,0.124,0.031-.007.059-0.04,0.049-0.124A0.873,0.873,0,0,0,913.251,160.849Zm0-1.58c0.1,0.282.131,0.637,0.238,0.914-0.461-.077-0.113-0.307-0.4-0.415a0.532,0.532,0,0,1-.323.332,1.081,1.081,0,0,1,.243-0.665c-0.882-.455-1.486-0.444-2.105-0.748-0.023.387-1.026-.084-1.457,0.083l0.162,0.416c-1.341.2-2-.8-3.157,0.083-0.567-.468-2.347-0.26-2.348-0.25a0.654,0.654,0,0,0-.486-0.249,0.346,0.346,0,0,1-.08.332c-0.4-.574-1.043.068-1.7,0.25a1.753,1.753,0,0,0-.567-0.582c0.119,0.4-.4.218-0.567,0.249,0.045,0.078.037,0.917,0.07,1-0.546-.1-1.2,1.076-1.688.5,0.131,0.68-.946.057-0.891,0.665,0.472-.234.935,0.124,1.376-0.249-0.108.839,0.638,0.476,0.809,0.5a2.313,2.313,0,0,0,.4.416c0.245-.14-0.194-0.44.081-0.583a3.093,3.093,0,0,0,1.456.453c-0.011.221,0.187,0.228,0.406,0.213a0.227,0.227,0,0,0-.032-0.174c0.67,0.048,1.234-.053,1.085-0.492,0.528,0,.319.122,0.323,0.583,0.521,0.244.686-.492,1.295-0.166-0.049.215-.525-0.055-0.485,0.249a0.907,0.907,0,0,0,.89-0.083,0.321,0.321,0,0,1-.162-0.416,6.866,6.866,0,0,0,1.619.582c0.11-.3-0.351-0.38-0.162-0.582,0.992,0.962,2.5.475,3.8,1.164,0.223-.166-0.289-0.414.081-0.5,0.277,0.046.062,0.531,0.4,0.5a1.372,1.372,0,0,1,.809-0.831,1.284,1.284,0,0,1-.242.582,8.318,8.318,0,0,1,1.78-.5c0-.548-0.313-0.579-0.809-0.333-0.309-.787.291-1.011,0.563-1.327a0.6,0.6,0,0,0,.408.412A2,2,0,0,0,913.251,159.269Zm24.528-21.042a0.543,0.543,0,0,0-.165-0.782c0.11,0.105-.214.151-0.078-0.049a1.472,1.472,0,0,0-.324.831c0.33,0.032.062-.482,0.486-0.332A0.349,0.349,0,0,0,937.779,138.227Zm-2.509,8.068c-0.055.166,0,.221,0.162,0.166C935.486,146.295,935.432,146.239,935.27,146.295Zm2.752-12.392c0.248,0.327-.282.413-0.081,0.665a1.056,1.056,0,0,0,.647-0.5l-0.353-.1A0.165,0.165,0,0,0,938.022,133.9Zm-0.324-1.081c-0.053.249-.173-0.08-0.324,0C937.327,133.142,938.047,133.1,937.7,132.822Zm0.648,0.5c-0.023.113-.05,0.223-0.081,0.333C938.543,133.611,938.808,133.32,938.346,133.32Zm0.242,2.662a0.3,0.3,0,0,0-.4-0.249c-0.057.061-.056,0.083-0.039,0.087a5.435,5.435,0,0,0-.285.744C938.266,136.846,938.1,135.85,938.588,135.982Zm0.243-2c-0.245.28,0.3,0.252,0,0h0Zm-0.971,1.747c0.042-.124.12-0.21,0.162-0.333C937.788,135.385,937.576,135.681,937.86,135.733Zm0.971-1.83c0.189,0.054.377-.491,0.081-0.416A1.536,1.536,0,0,0,938.831,133.9Zm-52.94-4.657c-0.132.17-.07,0.619,0.162,0.332C885.783,129.552,886.3,129.184,885.891,129.246Zm-0.972,95.807a0.661,0.661,0,0,0-.566-0.5C884.3,224.964,884.708,224.91,884.919,225.053Zm1.943-34.6c-0.56.034-.262-0.184-0.324-0.5,0.46,0.463-.183-0.649-0.162-0.582,0.645-.691.3-0.4,0.343-1.513a3.243,3.243,0,0,0-.343-1.315,1.67,1.67,0,0,1,.486-0.249,2.049,2.049,0,0,1-.119-1.151,24.384,24.384,0,0,0-.1-2.456c-0.065-.62-0.274-2.508.133-2.963a1.463,1.463,0,0,0-.146-1.015,11.075,11.075,0,0,1-.016-1.991c-0.089-.644.192-0.757,0.138-1.358-0.068-.768-0.333-0.228-0.462-0.876,0.9-.144.12-0.338,0-0.748,0.484-.539.269-0.208,0.389-1.148a0.964,0.964,0,0,0-.389-1.181c0.2-.392.635-1.51,0-1.913-0.031.284-.446,0.49-0.485,0.167,1.211-.688.806-3.284,0.323-4.242,0.695-.361.148-1.05,0.4-1.58-0.453-.072-0.375.259-0.647-0.166,0.491-.148.484,0.691,0.614-0.576,0.035-.35.3-1.121,0-1.263,0.077,0.036-.111-1.795-0.292-1.239,0.186,0.075.212,0.185,0.08,0.333-0.125-.176-0.3-1.035.163-0.582a2.17,2.17,0,0,1,0-1.164,0.33,0.33,0,0,1-.325,0c0.116-.564-0.149-0.289-0.161-0.749l0.486,0.083c0.039-.176.3-1.071-0.007-1.074a0.2,0.2,0,0,1-.318-0.173c0.486,0.127.352-3.028,0.366-3.143,0.035-.306.252-2.716-0.2-2.928,1.091-.25,0-4.694.081-4.741a0.554,0.554,0,0,0,.324.167q-0.018-.457,0-0.916a0.686,0.686,0,0,1-.728-0.166,1.236,1.236,0,0,1,.728,0,0.483,0.483,0,0,0-.162-0.5c-0.476.459-.97-0.273-0.566-0.831a0.553,0.553,0,0,0,.323.166c0.13-.5-0.812-4.667-0.08-4.491-0.147-.294-0.247-0.194-0.162-0.582a0.606,0.606,0,0,0-.324.332,0.7,0.7,0,0,1,.243-0.748,1.322,1.322,0,0,0-.324-0.5,2.532,2.532,0,0,0,.567-0.5,1.537,1.537,0,0,1-.246-0.77,0.491,0.491,0,0,1-.24-0.062c0.047-.434.51-0.248,0.324-0.915-0.146-.254-0.317.309-0.486,0-0.034-.517.441-0.187,0.648-0.249a6.642,6.642,0,0,0-.324-1.747c-0.127.255-.261,0.5-0.4,0.749a0.98,0.98,0,0,1,.4.582c-0.494-.5-0.2.751-0.535-0.522a0.912,0.912,0,0,1,.454-1.141,0.256,0.256,0,0,1-.4-0.084c0.047-.449.6,0,0.648-0.332a0.331,0.331,0,0,1-.324-0.25c0.419,0-.878-0.746-0.729-1.663a0.644,0.644,0,0,1,.243-0.083,0.55,0.55,0,0,0-.081.332c0.412,0.123.691-.211,0.4-0.665a0.223,0.223,0,0,1-.324.167c-0.07-.545.35-1.54-0.243-1.913-0.081.11-.162,0.221-0.242,0.333,0-.937-0.491.389-0.81-0.333a0.735,0.735,0,0,1-.162.748c0.227-.026,1.707-0.578,1.214.166a0.284,0.284,0,0,0-.324-0.166,1.208,1.208,0,0,0,.162.832c-0.369-.026-0.717-1.024-1.052-0.416a3.376,3.376,0,0,1,.486,1.414c0.333,0.126-.01-0.459.324-0.333a0.856,0.856,0,0,1,0,.582c-0.364-.52-1.169.079-1.3,0.5,0.211,0.18.406-.286,0.648-0.249,0.073,0.531-.339.051-0.324,0.5a0.564,0.564,0,0,1,.243.748,0.552,0.552,0,0,0-.324-0.166,5.506,5.506,0,0,0-.162,1.164c0.373,0.086-.126-0.281.162-0.332,0.38,0.272.38,0.778-.162,0.582,0.2,0.629-.042,1.291.162,1.913q0.043-.314.243-0.084c-0.018.209-.645,0.331-0.4,0.583a1.36,1.36,0,0,0,.729-0.666c0.4,0.706-.671.665-0.81,1,0.413,0.057-.527,4.4.33,4.859-0.522-.279-0.067,4.876-0.411,4.955-0.146,1,.282,2.758,0,3.576a2.579,2.579,0,0,1,.166.75c-0.489.575,0.108,1.037,0.239,1.413-0.783.069,0.163,1.733,0.162,1.746-0.26.1-.064-0.268-0.324-0.166a16.1,16.1,0,0,1,.162,2.578c0.139,0.667-.713.009-0.265,0.937a0.739,0.739,0,0,1,.107.839,7.672,7.672,0,0,0-.166,2.382,2.644,2.644,0,0,1-.081,1.664,0.854,0.854,0,0,1,.324.166c-0.2.706-.113,1.635-0.324,2.245a4.642,4.642,0,0,1,0,2.745,7.882,7.882,0,0,1,.486,1.081c-0.172.075-.294-0.334-0.405-0.083,0.224,0.058.032,4.812,0.162,5.489-0.211-.058-0.035,5.445-0.223,6.3a5.4,5.4,0,0,0,.089,1.313c0.433,0.642-.1,1.5-0.011,2.129a19.434,19.434,0,0,1,.064,5.977,0.328,0.328,0,0,1,.324,0,4.162,4.162,0,0,0,.089,1.748c0.49,0.141.521,0.453,1.368-.251-0.463,1.123,1.145.57,1.538,0.666-0.089-.234-0.3-1.482.081-1.414a0.681,0.681,0,0,0-.081.25C887.187,191.674,886.73,190.668,886.862,190.456Zm-3.319-57.385c0.054-.166,0-0.222-0.162-0.166C883.328,133.071,883.381,133.127,883.543,133.071Zm2.426,4.054a0.543,0.543,0,0,0,.246-0.062C886.051,136.979,885.984,137.024,885.969,137.125ZM884.191,129a0.191,0.191,0,1,0,.05.012C884.274,129,884.294,128.973,884.191,129Zm-0.567,2.246c0.065,0.5.242,0.009,0.044,0C883.726,131.244,883.635,131.325,883.624,131.242Zm48.246,13.972c0.1,0.017.049,0.092,0,.166C932.208,145.51,931.958,144.872,931.87,145.214ZM883.948,131.99c-0.043-.09-0.087-0.179-0.131-0.269,0.032,0,.064-0.05-0.031-0.064a1.207,1.207,0,0,1-.243.167A0.483,0.483,0,0,0,883.948,131.99Zm21.775,26.946c0.054-.166,0-0.222-0.162-0.166C905.508,158.936,905.561,158.991,905.723,158.936Zm-6.557.665c-0.019.347-.3-0.093-0.4,0.167a1.059,1.059,0,0,0,.324.332,1.455,1.455,0,0,0,.211-0.363C899.27,159.8,899.155,159.809,899.166,159.6Zm-8.991,66.965a0.325,0.325,0,0,0-.237.234,0.51,0.51,0,0,0,.324.083V226.55C890.262,226.628,890.166,226.591,890.175,226.566Zm8.1-66.632c-0.293.393,0.474,0.111,0,0h0Zm0.957-.307a0.109,0.109,0,0,1,.064.11A0.087,0.087,0,0,0,899.233,159.627Zm0.257,0.806c-0.163-.55.531-0.128,0.567-0.5a0.357,0.357,0,0,1-.4-0.333l0.485,0.167c-0.235-.358.007-0.3,0.163-0.582a0.6,0.6,0,0,1-.648-0.084c0.168,0.206-.147.286-0.065,0.1A1.25,1.25,0,0,0,899.49,160.433Zm14.328-1c0.054-.166,0-0.222-0.162-0.166Q913.575,159.518,913.818,159.435ZM890.505,226.8c0.024-.17.219-0.163,0.243-0.333C890.569,226.432,890.3,226.717,890.505,226.8Zm0.648,0.167c0.011-.207.015-0.4-0.163-0.417C890.979,226.757,890.976,226.954,891.153,226.967Zm31.349-50.2c-0.277-.059.32,0.385,0,0h0Zm14.629-41.7c-0.15.1,0.212,0.319,0,0h0Zm10.847,16.3a0.224,0.224,0,0,0,.243-0.166C948.094,151.209,947.941,151.19,947.978,151.368ZM921.67,226.8a0.419,0.419,0,0,0,.243.083C922.062,226.73,921.541,226.483,921.67,226.8Zm20.885-9.065c-0.081.221-.027,0.3,0.162,0.249C942.716,217.87,942.847,217.683,942.555,217.735Zm11.738-82.252c-0.271-.067-0.419.484-0.567-0.083a0.517,0.517,0,0,0,.567-0.333,0.407,0.407,0,0,1-.4,0,8.366,8.366,0,0,0,.162-0.915,2.859,2.859,0,0,0-.729,1.081,3.3,3.3,0,0,1-.4-0.582c0.135-.251.427,0.2,0.566-0.083-0.4-.135-0.015-0.34-0.4-0.083a0.662,0.662,0,0,1-.08-0.249c0.6-.079.188-0.772-0.243-0.749a0.392,0.392,0,0,1-.162.5c0.061-.405-0.373-0.235-0.486-0.5-0.121.394,0.233,0.269,0.243,0.582a8.874,8.874,0,0,0-1.328,2.3,0.406,0.406,0,0,0-.21-0.134,1.059,1.059,0,0,0,.161.749c-0.578-.244-0.912,1.355-1.131,1.617-0.67.8-.027,0.83-0.083,1.543a0.547,0.547,0,0,0-.323-0.166,0.247,0.247,0,0,1,0,.333,0.284,0.284,0,0,0-.324-0.167c0.146,0.539-.725,1.611-0.935,1.95-0.429.692,0.17,0.865,0.287,1.211l-0.324.416a0.546,0.546,0,0,1-.08-0.333,1.569,1.569,0,0,0-.81,1c0.072,0.242-.73,1.509-0.243,1.746a1.236,1.236,0,0,0-.734.914,0.658,0.658,0,0,1-.156-0.082c-0.19.115,0.033,0.237,0.128,0.145a11.221,11.221,0,0,1-1.1,2.35c-0.125.445,0.517,0.723,0.4,1-0.242.095-.583-0.322-0.765,0.488a12.319,12.319,0,0,0-.449,1.758c-0.132-.143-0.266-0.281-0.4-0.416,0.168,0.457-.461.632-0.081,1.081-0.519.017-.181,0.016-0.243,0.416-0.48,0-.913,1.471-0.647,2-0.571.423-.426,0.894-1.052,1.414a0.249,0.249,0,0,1,.242.249c-0.554-.022-0.5.551-0.809,0.832a0.223,0.223,0,0,0,.17-0.04,4.512,4.512,0,0,0-.332,1.37c-0.523,0-.277.378-0.243,0.832-0.254.063-.109-0.283-0.405-0.166-0.253.3,0.154,0.439,0.243,0.665-0.42.424-.2-0.492-0.586,0.4q0.236,0.561-.227.428c-0.342.037,0.244,0.516,0.246,0.5-0.47.476-.074-0.536-0.564,0.447-0.455.913,0.3,0.018,0.16,0.717-0.85.008-1.066,1.786-1.215,2.5-0.737.177-1.611,3.733-1.878,4.582-0.225.721-.5,1.23-0.757,1.907a7.922,7.922,0,0,1-.521,1.745c-0.219-.549-0.771,1.289-0.855,1.646a16.13,16.13,0,0,0-.6,1.93l0.486-.25c-0.256.574,0.493,1.994,1.052,1a0.628,0.628,0,0,1,.162.749c1.2-.125.99,0.236,1.622-0.912a3.973,3.973,0,0,0,.67-1.374c0.419-1.955,1.741-3.556,2.079-5.532,0.11,0.023.218,0.051,0.324,0.083,0.039-.639.711-1.548,0.648-2.245A10.28,10.28,0,0,0,941.87,167a20.245,20.245,0,0,1,1.093-2.488c0.478-.978.693-2.14,1.055-3.109a37.608,37.608,0,0,0,1.714-4.319c0.307-1.255,1.346-2.7,1.275-3.886a0.841,0.841,0,0,0,.324.249,0.622,0.622,0,0,1,.567-1c0-.663-0.336-0.262-0.122-1.047,0.087-.32.2-0.657,0.607-0.45-0.082-.306-0.091-1.68.567-1.331-0.147-1.09.124-.527,0.486-1.247a0.167,0.167,0,0,1-.243-0.166c1.126-.1-0.062-1.09.566-1.5a0.287,0.287,0,0,1-.081.415c0.547,0,.567-0.607.648-1-0.946-.111.21-0.878,0.383-0.917-0.528,0-.3-0.71.1-0.829a0.17,0.17,0,0,0,.161.249c0.246-.523-0.419-1.579.486-1.33,0.026-.2-0.356-0.4-0.08-0.583,0.215-.026.63,0.1,0.485-0.415-0.252-.2-0.709.174-0.891-0.167a8.266,8.266,0,0,0,1.215-1.33q-0.117.292,0.162,0.332c-0.021-.84.728-1.452,0.728-2.162,0.772-.333.634-1.522,0.972-2.162a0.618,0.618,0,0,1-.648-0.416,0.283,0.283,0,0,1,.324.166c0.266-.3-0.238-0.322-0.243-0.582C953.851,136.033,954.381,136.133,954.293,135.483Zm-9.876,22.289c0-.083.054,0,0,0h0Zm-14.571.915c-0.006,0,0,.077,0,0.083C929.462,159.221,930.235,158.616,929.846,158.687Zm2.186-5.24c0.978,0.182.929-1.991,0.971-2.162,0.638-.236.608-1.174,0.832-1.7a3.591,3.591,0,0,1,.537-1.038c0.083-.114.162-1.017,0.371-1.492a4.584,4.584,0,0,1,.607-1.428,0.792,0.792,0,0,1-.89-0.166q0.445,0.02.89,0c-0.373-.931.481-1.167-0.647-1,0.3-.877.562,0.05,0.98-0.49,0.307-.4-0.148-0.285-0.09-0.674,0.185-.041.416,0.336,0.567,0.083-0.032-.01-0.55-1.72,0-1.208,0.616,0.572-.274-1.147.4-0.539-0.123-.412-0.692-0.285-0.972-0.416q0.039-.285.324-0.166c-0.234-.736-1.042.2-1.376-0.332,0.559,0.146.033-.447,0.486-0.5,0.356,0.3,1.067.354,1.216,0.958a3.59,3.59,0,0,0,.888-0.958c-0.971-.393.382-0.558,0.4-0.583,0.084-.568-0.2-0.642.405-1.164-0.276-.224-0.422.292-0.648,0.333,0.048-.49-0.5-0.343-0.566-0.749-0.007,0,1.428-1.606,1.214-.665a1.464,1.464,0,0,0,.567-0.666,5.621,5.621,0,0,1-1.053.25c0-.323.608-1.376-0.243-1.5a6.019,6.019,0,0,1-.161.665,0.314,0.314,0,0,1,.4,0c-0.041.07-1.282,2.778-1.538,1.747,0.136-.3.3-0.33,0.486-0.083-0.14-.317.412-0.448,0.162-0.666-0.415.684-.737,0.4-0.81-0.166,0.111,0,1.133-.419,1.133-0.416-0.205.049-.3-0.485-0.281-0.563a0.425,0.425,0,0,0,.2-0.351,0.412,0.412,0,0,1-.4.083,0.515,0.515,0,0,1,.4-0.333,0.17,0.17,0,0,0,.161.25c0.307-.074-0.025-0.462.162-0.583,0.242,0.365,1-.036,1.134-0.083l-0.081.5c0.621-.231.273,0.4,0.728,0.416a3.461,3.461,0,0,0,0-1.248c-0.208.206,0.137,0.567-.324,0.582,0.023-.112.05-0.223,0.081-0.332-0.3-.074-1.482-0.119-1.376-0.665a0.307,0.307,0,0,1,.486.083,1.531,1.531,0,0,0-.162-0.5c0.15-.035.906-0.33,0.405-0.583-0.208.382-.812,0.072-1.134,0.167-0.122.372,0.029,0.77-.485,0.832a0.982,0.982,0,0,0,.648.5,2.924,2.924,0,0,0-1.458,1.746c0.2,0.067.332-.415,0.486-0.166-0.823.357-.474,1.61-0.89,1.829-0.023-.122-0.761.04-0.082,0.583a1.964,1.964,0,0,0-.566.582,1.871,1.871,0,0,1,.566.166c-0.2.4-.5-0.009-0.809,0.166-0.067.321,0.391,0.1,0.324,0.416a1.1,1.1,0,0,1-.406-0.09c-0.2.015,0.3,0.612,0.325,0.672-0.3.087-.129-0.311-0.405-0.249a1.859,1.859,0,0,0-.162.831,0.362,0.362,0,0,0-.4,0c-0.085.305,0.3,0.133,0.243,0.416-1.075-.3-0.473,1.688-0.486,1.747a1.69,1.69,0,0,0-.891,2.079c-0.322,0-.642.285-0.243,0.416a3.158,3.158,0,0,1-.485.333,1.513,1.513,0,0,1,.162-0.5c-0.592-.09-0.568,1.048-0.567,1.414a0.508,0.508,0,0,0-.324-0.083l0.081,0.5c0.3,0.117.151-.229,0.405-0.166,0.054,0.794-.366.123-0.648,0.166a1.243,1.243,0,0,1-.485,1.164,5.192,5.192,0,0,1,.081.832c-0.479-.106-0.764.972-0.972,1.248,0.231,0.027.488,0.176,0.324,0.5-0.451-.234-0.545.443-0.728,0.665,0.131,0.234.26-.2,0.323,0-0.375.366-.414,1.467-0.971,1.414a0.417,0.417,0,0,0,.486.5c0.167-.175-0.135-0.661.4-0.5-0.017.573-.51,1.019-0.567,1.663-0.112-.054.12-2.27-0.685-0.583a2.413,2.413,0,0,0-.124,1.831,0.378,0.378,0,0,1,.567.249,2.378,2.378,0,0,0-.89,0c0.022-.112.049-0.223,0.08-0.332-0.494.015-.861,1.746-1.052,2.328a0.582,0.582,0,0,1,.647.416c-0.95.1-2.421,2.716-1.7,3.493-0.442-.072-0.356.019-0.486,0.333a0.271,0.271,0,0,0-.405-0.083c0.039,0.266.553,0.432,0.324,0.748a0.369,0.369,0,0,0-.648.167,0.325,0.325,0,0,1,.324.083c0.015,0.055.009,0.607,0,.748-0.86-.057-0.248.539-0.243,0.582-1.693.608-.678,1.157-0.728,2.246-0.455-.024-0.1-0.348-0.4-0.5-0.448.2-1.686,2.577-1.376,3.16-0.275-.279-0.427.461-0.485,0.582,0.173,0.2.41-.164,0.4,0.25-0.2.06-1.491,0.866-.647,1.247-0.723.581-1.165,2.366-1.377,3.244-0.373-.335-0.385.862-0.4,1a1.009,1.009,0,0,1-.324-0.084c-0.153.834-.583,1.012,0.4,1.331a0.514,0.514,0,0,1,.4-0.332c-0.783.824-.17,0.15-1.052,0.332,0.122,0.626-.231.339,0.108,0.887,0.392,0.634.329-.11,0.54-0.138,0.131,0.851.331,0.831,0.971,0.5,0,1.092,1.2.368,0.972-.5a0.619,0.619,0,0,1,.242-0.084c-0.027.333-.053,0.666-0.081,1,0.448-.13.177-0.81,0.567-1-0.725.06-.107-1.39,0.162-1.58,0.083,0.087.14,0.153,0.184,0.2a1,1,0,0,1,.14.045,3.106,3.106,0,0,1-.076-0.665,0.455,0.455,0,0,0,.561-0.5l-0.324-.084-0.237.57c0.008-.282.088-0.481,0.157-1.069,1.09,0.887.133-1.121,0.728-1.247,0.227,0.088-.244.429,0.162,0.416,0.365-.874.546-1.2,0-2a0.4,0.4,0,0,0,.648-0.167,0.323,0.323,0,0,1-.324,0c-0.09-.763.6-0.722,0.728-1.33-0.26-.1-0.064.268-0.324,0.166a0.661,0.661,0,0,1-.08-0.25c0.58-.079,1.494-0.42,1.052-1,0.368-.287.268-0.4,0.243-0.915-0.481-.091-0.213.511-0.567,0.582,0.094-.312-0.1-0.938.4-1a0.27,0.27,0,0,0,.243.333,0.261,0.261,0,0,0,.081-0.416,1.843,1.843,0,0,1,0-1.248,1.9,1.9,0,0,1,0,.665c0.408,0.058.479-.761,0.809-0.582a0.639,0.639,0,0,1-.081-0.665c-0.422-.031-0.166.606-0.647,0.5-0.158-.553.033-0.3-0.567-0.665,0.464-.042-0.167-0.841.615-0.411a0.983,0.983,0,0,0,.68.244c0-.67-0.287-0.064-0.486-0.582a0.518,0.518,0,0,1,.4,0c-0.67-.851.575-1.8,0.648-1.248a0.357,0.357,0,0,1-.405,0,7.087,7.087,0,0,1,0,1,1.389,1.389,0,0,0,.728-0.666,0.23,0.23,0,0,1-.323,0,0.613,0.613,0,0,1,.243-0.416,0.17,0.17,0,0,0,.161.25,2.184,2.184,0,0,1,.243-0.748c-0.216-.117-0.322.329-0.4,0.166,0.018-.561.615-0.585,0.728-1.081-1.857-.162-0.277-0.472-0.031-0.563a0.41,0.41,0,0,0-.212.313c0.677,0.166.747-1.387,0-1.331a0.235,0.235,0,0,1-.081.25c-0.475-.19.313-1.29,0.324-1.747,0.537,0.283.164,0.41,0.162,0.832,0.375,0.159.1-.334,0.4-0.249a0.983,0.983,0,0,0-.162,1.081,0.3,0.3,0,0,1,.4-0.25,1.372,1.372,0,0,1,.162-1.164,0.281,0.281,0,0,0,.323.166c-0.275-.589.442-3.462,1.3-3.493,0.021,0.434-.612.73-0.4,1.165a3.113,3.113,0,0,0,.728-1.414,0.568,0.568,0,0,1-.647-0.416c0.645,0.165,1.693-.381,1.133-1.164A1.384,1.384,0,0,0,932.032,153.447Zm-5.262,12.724c0.358,0.155.48-.66,0.162-0.665A4.974,4.974,0,0,0,926.77,166.171ZM922.156,177.9c0.011-.1.144-0.188,0-0.249C922.144,177.747,922.012,177.837,922.156,177.9Zm2.347-5.905c0.111-.106.126-0.407-0.081-0.416C924.312,171.683,924.3,171.985,924.5,171.993Zm1.458-3.16c0.023-.051.2-0.32,0-0.333C925.937,168.551,925.759,168.82,925.961,168.833Zm0.323-1.414a0.145,0.145,0,0,0,.081.166C926.438,167.572,926.407,167.125,926.284,167.419Z" transform="translate(-838 -90.281)"/>
</svg>
